<svg xmlns="http://www.w3.org/2000/svg" viewBox="0 0 24 24" fill="hotpink" class="w-6 h-6"><path fill-rule="evenodd" d="M2.25 12c0-5.385 4.365-9.75 9.75-9.75s9.75 4.365 9.75 9.75-4.365 9.75-9.75 9.75S2.25 17.385 2.25 12zm13.36-1.814a.75.75 0 10-1.22-.872l-3.236 4.53L9.53 12.22a.75.75 0 00-1.06 1.06l2.25 2.25a.75.75 0 001.14-.094l3.75-5.25z" clip-rule="evenodd" /></svg>

<svg xmlns="http://www.w3.org/2000/svg" width="32" height="32" viewBox="0 0 24 24"><path fill="#89b654" d="m10.6 16.6l7.05-7.05l-1.4-1.4l-5.65 5.65l-2.85-2.85l-1.4 1.4ZM12 22q-2.075 0-3.9-.788q-1.825-.787-3.175-2.137q-1.35-1.35-2.137-3.175Q2 14.075 2 12t.788-3.9q.787-1.825 2.137-3.175q1.35-1.35 3.175-2.138Q9.925 2 12 2t3.9.787q1.825.788 3.175 2.138q1.35 1.35 2.137 3.175Q22 9.925 22 12t-.788 3.9q-.787 1.825-2.137 3.175q-1.35 1.35-3.175 2.137Q14.075 22 12 22Z"/></svg>

<svg xmlns="http://www.w3.org/2000/svg" width="32" height="32" viewBox="0 0 24 24"><path fill="#89b654" d="M12 2C6.48 2 2 6.48 2 12s4.48 10 10 10s10-4.48 10-10S17.52 2 12 2zm-2 15l-5-5l1.41-1.41L10 14.17l7.59-7.59L19 8l-9 9z"/></svg>
