<svg width="909" height="266" viewBox="0 0 909 266" fill="none" xmlns="http://www.w3.org/2000/svg">
<path d="M317.941 164.071C318.87 164.156 319.881 164.212 320.938 164.257C312.076 164.321 303.56 164.407 302.612 164.389C303.108 164.359 307.447 164.268 317.941 164.071H317.941ZM60.9141 159.244C47.9622 159.231 40.4431 159.359 60.9934 160.331C35.696 161.104 102.501 160.086 60.6621 160.981C55.1076 164.157 8.01591 164.412 51.9234 165.596C68.2207 164.952 2.4186 167.465 38.9417 167.704C-2.75996 168.069 71.9226 168.37 36.5549 168.526C9.16253 168.748 58.2519 169.221 27.2458 169.256C28.1667 170.331 31.4357 170.922 35.2683 171.218C24.7155 173.434 43.7304 174.108 42.1505 173.937C68.2088 173.459 8.63632 175.294 46.5398 175.011C78.3975 174.481 12.9501 175.355 47.0572 176.124C-15.0185 177.484 108.665 177.106 51.7379 178.233C20.9768 178.628 72.4734 179.674 42.4425 180.289C41.2386 180.28 40.9183 180.27 40.0819 180.262C45.112 180.369 51.5856 180.668 40.533 181.362C39.6135 181.4 38.7224 181.454 37.8809 181.522C37.3662 181.55 37.0056 181.572 36.4353 181.601C36.6198 181.606 36.7454 181.61 36.9261 181.614C35.8853 181.72 34.9496 181.842 34.1943 182.012C49.9193 183.327 65.7248 183.729 81.5605 183.776C81.5083 182.405 81.4811 181.022 81.4811 179.639C81.4811 172.671 82.1528 165.865 83.4301 159.27C76.7684 159.295 68.0795 159.252 60.9141 159.244ZM344.249 172.876C345.613 172.852 346.874 172.814 347.883 172.77C346.671 172.807 345.461 172.842 344.249 172.876ZM332.991 158.767C334.267 158.709 335.568 158.64 336.903 158.528C334.503 158.536 333.375 158.623 332.991 158.767ZM343.003 123.189C341.952 123.206 339.671 123.682 335.616 124.846C319.029 129.123 303.214 135.141 287.428 141.223C292.038 153.143 294.575 166.093 294.575 179.639C294.575 181.031 294.536 182.423 294.483 183.802C318.639 184.001 342.805 184.287 366.938 183.166C351.385 183.604 334.599 181.99 332.633 180.991C325.527 180.543 321.893 180.374 320.38 180.315C323.551 180.424 336.127 180.66 343.162 178.803C339.746 178.167 335.882 177.798 330.856 177.636C342.121 177.442 349.624 177.085 333.243 176.881C349.028 175.707 333.671 174.282 315.288 173.419C324.942 173.321 334.598 173.146 344.249 172.876C327.785 173.155 289.438 172.005 324.809 171.577C339.361 168.862 316.112 171.415 328.111 167.943C320.079 167.106 302.168 166.919 301.537 166.789C301.801 166.738 305.061 166.689 313.14 166.604C327.298 166.492 375.789 164.871 335.762 165.225C319.536 164.552 369.071 164.121 339.303 164.217C337.2 164.196 334.48 164.184 331.546 164.19C343.521 163.691 353.126 162.04 333.508 162.281C340.881 161.418 322.93 161.416 316.614 161.445C317.543 161.441 318.974 161.426 325.804 161.353C347.427 161.446 331.115 159.469 332.991 158.767C320.793 159.316 312.299 157.599 327.7 157.534C308.23 157.379 352.465 156.507 352.975 156.208C352.725 156.131 349.042 156.091 339.714 156.128C314.87 156.4 353.694 155.297 331.082 155.041C315.848 154.749 281.595 156.416 316.813 154.51C330.535 153.727 358.385 153.124 328.801 153.184C325.496 153.165 323.853 153.152 321.852 153.144C331.315 153.112 347.359 152.892 341.875 151.831C336.532 151.162 320.626 150.954 308.764 150.89C313.154 150.822 318.921 150.706 324.61 150.598C319.922 150.432 344.21 147.405 319.227 148.264C312.846 148.314 306.473 148.347 300.092 148.384C322.819 140.29 345.601 132.317 368.317 124.197C355.675 128.529 328.34 134.051 328.602 133.585C338.715 131.601 346.814 124.518 337.858 127.233C341.672 125.327 345.314 123.151 343.003 123.189ZM335.776 111.082C335.224 111.147 334.261 111.621 333.296 112.222C334.483 111.898 335.492 111.619 336.227 111.44C336.265 111.222 336.178 111.108 335.988 111.082C335.927 111.074 335.854 111.073 335.776 111.082ZM319.678 110.923C319.412 111.146 319.135 111.505 318.431 112.236C310.243 115.615 279.839 126.24 303.818 117.049C306.756 116.423 314.32 113.479 319.678 110.923ZM36.0901 100.553C33.2212 99.5303 29.7175 98.4169 25.349 97.2253C28.9296 98.3333 32.51 99.4445 36.0901 100.553ZM59.8396 92.3187C60.0145 92.4838 63.2958 94.88 71.9993 101.217C70.8371 102.108 74.488 105.44 79.1731 109.027C67.2748 100.659 55.5696 91.8588 74.0018 106.136C51.6726 91.17 71.9658 104.704 91.3328 118.177C78.0715 115.038 65.0959 111.375 53.1959 105.844C47.4966 104.077 41.7902 102.319 36.0901 100.553C43.6746 103.258 46.6799 105.305 48.3826 106.335C76.1345 115.646 31.0843 102.019 61.9745 112.222C60.5352 112.304 16.1923 99.2409 43.8342 108.549C8.04432 97.8325 68.8686 116.989 42.2162 109.067C75.9618 119.622 18.9501 104.545 54.1506 116.957C55.716 117.529 57.4735 118.15 59.3223 118.8C38.2178 112.279 25.0329 108.271 34.8303 111.507C43.5626 115.128 54.9777 118.759 59.9457 120.285C57.6297 119.609 53.6508 118.476 46.3671 116.426C14.0057 114.099 85.2776 132.704 39.4581 120.192C11.8093 112.725 65.0751 129.675 33.4512 120.086C49.3641 125.7 72.9027 132.795 44.0863 123.958C21.7048 118.523 46.7715 127.987 44.1257 126.783C45.6368 127.29 46.9004 127.715 48.1705 128.135C43.8262 126.974 38.8882 125.816 34.4327 125.138C43.8838 130.235 61.8705 134.522 37.8936 128.506C55.5517 134.507 33.7513 129.044 44.4308 132.445C36.2043 130.209 37.294 131.034 56.6571 137.086C97.8323 150.201 17.442 126.213 56.1 139.035C49.0124 137.752 24.8254 129.391 45.6245 137.616C10.2432 127.908 89.0108 151.732 50.9286 140.547C35.5131 137.617 53.9987 143.529 73.4047 149.378C51.5355 149.411 29.608 148.148 7.69971 148.914C32.3068 150.055 42.2146 150.561 35.5067 151.778C39.3639 152.012 42.4513 152.171 45.0011 152.283C40.0483 152.408 33.5272 152.798 26.6887 153.794C43.9684 153.785 81.506 153.827 43.9933 154.51C62.0487 154.901 97.7495 155.922 57.479 154.908C49.0637 155.313 83.8301 158.158 56.5511 157.136C59.6139 158.639 70.0224 159.158 83.4296 159.257C86.3299 144.29 92.3576 130.438 100.814 118.415C99.0209 117.271 95.4416 114.892 89.3702 110.79C68.8321 97.0501 48.9237 83.1701 79.8495 105.394C86.7733 111.457 59.3151 91.824 59.8396 92.3187ZM105.163 63.995C106.121 65.4198 107.125 66.8969 108.041 68.2646C107.159 67.0705 106.173 65.5416 105.163 63.995ZM115.732 63.3979C117.72 66.2579 119.71 69.1192 121.673 71.9906C119.594 69.182 117.669 66.2872 115.732 63.3979ZM173.614 26.7725C173.111 24.8099 172.553 22.8507 171.956 20.9909C172.582 23.3642 173.122 25.2393 173.614 26.7725ZM157.409 28.7087C156.345 20.8967 155.238 21.3456 157.409 28.7087V28.7087ZM158.324 39.4761C157.541 35.4522 156.923 32.632 158.364 40.2454C158.353 39.9798 158.337 39.7354 158.324 39.4761ZM126.579 63.0134C125.778 61.8996 124.973 60.7925 124.166 59.685C119.058 52.8694 125.32 61.7663 127.335 64.3264C127.101 63.8982 126.835 63.456 126.579 63.0134ZM99.7003 55.8927C98.1629 53.6251 96.6378 51.3608 95.1255 49.1564C94.1911 48.0434 97.8807 53.376 99.7003 55.8927ZM70.501 59.7381C68.051 57.8184 65.3904 55.8198 62.5448 53.8241C65.1527 55.838 67.8142 57.8035 70.501 59.7381ZM305.82 67.3497C315.475 60.1411 320.907 55.8749 304.8 67.2568C304.037 67.9107 304.792 67.6934 305.82 67.3497ZM297.599 62.8942C297.392 63.1756 295.527 64.7079 291.367 67.9595C306.531 56.416 303.884 58.0967 297.599 62.8942ZM285.545 55.0309C287.555 52.3538 290.299 48.1634 294.417 41.0941C291.491 45.752 288.525 50.398 285.545 55.0309ZM260.881 51.1189C260.83 51.211 260.761 51.343 260.709 51.4372C266.226 43.8154 263.307 48.5815 259.688 54.2484C259.997 53.869 260.293 53.5071 260.589 53.1346C264.74 46.8485 264.596 47.3068 263.162 49.7929C270.362 40.0753 271.674 35.1242 260.881 51.1189ZM257.009 52.6042C257.205 52.3042 257.391 52.0241 257.659 51.5964C256.905 52.6966 256.639 53.0772 256.107 53.8504C256.412 53.4252 256.717 53.0026 257.009 52.6042ZM228.433 49.4084C228.208 49.8906 227.607 52.3929 228.433 49.4084V49.4084ZM226.073 40.3914C225.754 42.6463 225.343 45.3243 224.8 48.5729C227.299 35.3189 227.08 35.5171 226.073 40.3914ZM176.558 20.5934C177.304 30.0314 176.823 36.7787 173.614 26.7725C177.136 40.5119 178.046 54.0137 172.235 28.5496C168.899 24.3589 168.679 30.6534 169.968 41.3462C168.751 36.6929 167.45 32.31 166.029 28.3242C174.259 59.3824 159.009 17.3778 161.905 41.0279C159.708 35.8316 158.294 31.7057 157.41 28.7087C157.769 31.3412 158.105 34.9154 158.325 39.4761C159.582 45.929 161.277 55.4981 155.633 30.2732C148.411 8.78034 159.253 58.0912 150.886 25.9374C149.279 27.6987 149.527 31.8402 149.891 34.371C149.486 32.5709 148.741 29.5009 147.372 24.4785C149.23 63.4492 138.818 4.46741 142.784 44.9793C140.795 35.0728 141.874 49.8307 143.791 66.1166C134.562 51.8386 125.368 37.5466 114.791 23.9748C119.428 30.5006 124.753 36.802 128.012 43.9453C126.819 44.0475 135.548 55.3682 130.399 49.0902C128.598 46.6949 121.889 37.6193 126.447 44.3959C128.93 48.2076 133.812 54.7012 134.801 56.9136C132.49 53.9319 128.013 47.7082 127.282 46.7034C128.692 48.6387 133.83 56.4516 129.815 51.0129C128.261 48.9184 122.193 40.5828 126.752 47.0479C131.103 53.4863 136.093 59.6642 139.813 66.3818C132.853 57.9906 127.724 48.5373 120.347 40.3914C121.78 44.3199 127.556 51.8594 128.264 53.2538C123.869 47.2159 119.677 41.0415 114.924 35.2065C121.92 46.0839 129.794 56.5462 136.843 67.4027C131.393 60.1403 126.811 52.3559 120.984 45.3243C122.404 47.8487 128.784 56.3735 127.455 54.8582C122.077 48.7304 117.351 42.2144 112.457 35.8031C116.447 43.0095 121.98 49.6601 125.479 57.0066C123.738 55.7285 120.052 51.8271 122.92 56.0917C124.705 58.7671 126.501 61.4404 128.29 64.1141C124.292 58.4357 120.267 52.7752 116.21 47.1277C119.583 52.2439 123.714 58.053 126.58 63.0134C129.814 67.5079 132.938 72.0755 135.438 76.8972C128.601 68.7674 124.499 58.8388 116.011 51.7686C117.438 55.8999 122.828 61.0573 123.941 63.8091C121.773 61.6658 119.138 57.2892 117.058 56.4363C120.318 62.1822 116.511 55.8159 114.658 53.718C116.248 56.3451 120.031 63.484 115.534 57.3911C111.11 51.3914 117.532 60.8323 119.035 63.0402C124.223 70.6426 129.553 78.177 134.841 85.7284C123.346 69.973 111.892 54.1814 100.258 38.5082C102.273 41.9079 108.535 50.7897 108.227 50.5754C105.819 47.5524 111.369 55.4714 112.431 57.0728C113.898 59.1329 117.477 64.5559 113.823 59.4596C109.785 53.9577 105.95 48.343 101.809 42.8975C104.802 47.5261 107.905 52.106 111.052 56.6616C109.95 55.159 108.815 53.6718 107.604 52.2329C107.72 52.8961 108.409 54.1988 109.314 55.6806C106.846 52.2214 104.196 48.8616 101.12 45.8017C102.43 49.5235 109.85 57.5701 109.063 58.1735C107.024 55.6195 103.908 51.1508 102.79 49.7662C108.975 58.771 115.479 67.6421 121.116 76.9103C114.914 68.6587 109.679 59.7669 102.764 51.9677C105.061 55.8367 108.232 60.2396 110.693 63.8223C108.372 60.5497 104.85 56.1723 108.386 62.178C109.793 64.7231 113.586 70.584 109.593 64.6844C107.867 62.3697 101.65 53.505 102.393 54.9113C103.683 56.8755 108.702 63.8133 104.819 58.7039C103.494 56.7757 99.346 51.8535 100.085 53.3866C98.4922 51.1618 96.8297 48.9744 95.033 46.8757C96.0396 49.6618 101.027 56.5025 100.43 56.8874C100.275 56.6803 99.943 56.2284 99.7008 55.8927C100.958 57.7466 102.178 59.5466 103.414 61.3823C102.063 59.4575 100.721 57.8153 99.5416 57.2056C105.093 66.2231 111.507 74.8218 117.536 83.6068C110.658 74.5006 104.474 64.9675 96.7304 56.3701C100.276 62.6104 105.635 68.0324 108.705 74.4704C104.187 68.8986 100.447 62.8836 96.0009 57.2718C97.5616 60.9596 103.956 68.237 103.135 69.6305C99.887 66.2787 97.1258 62.59 94.3834 58.9293C100.144 67.1481 105.887 75.3739 111.542 83.6466C105.534 75.4867 100.358 66.8702 93.9723 58.9293C97.0087 65.3575 101.502 71.2451 105.535 77.2553C101.163 71.0672 97.1068 64.6569 92.0895 58.8363C99.0006 70.5089 106.608 81.8687 114.433 93.1144C104.735 87.0418 95.6785 80.3657 88.2705 72.1498C82.3391 68.0253 76.3497 63.95 70.5015 59.7381C79.4159 66.7247 85.4432 72.6555 86.4933 73.4228C109.747 90.321 105.741 88.162 85.2335 73.3964C90.6611 78.216 103.55 86.6314 95.6033 81.6174C113.172 93.6604 118.996 100.558 98.0034 84.0442C86.793 74.7199 67.0478 63.9343 79.6378 73.1181C74.7724 69.7519 72.6852 68.3719 72.5171 68.3444C72.6219 68.6477 84.3806 77.2235 94.2111 84.3362C68.9522 67.3624 118.538 103.819 84.5308 79.271C68.3506 67.8534 68.2292 68.5688 83.417 79.3503C78.8066 78.1388 94.0028 89.8822 108.864 100.792C89.4463 86.9305 70.6738 73.5458 68.7775 72.2295C69.3096 72.6254 72.2871 74.7742 78.6564 79.3503C84.9564 84.0973 112.238 104.339 89.941 88.5659C107.803 101.99 101.208 96.9864 80.5925 82.9571C86.6541 87.3549 101.147 98.6909 83.4301 86.1129C92.078 92.8208 81.6267 84.8887 98.3747 97.7422C56.0835 68.5976 101.639 100.247 93.1766 95.581C47.5833 64.8211 139.721 131.076 92.9645 99.0152C81.6628 91.4081 60.4966 76.5035 82.8072 92.6769C45.5983 67.1871 104.892 109.459 97.8841 104.691C91.7716 100.166 54.2847 73.6367 77.1448 90.436C56.9543 76.1572 52.4445 73.4058 76.3493 90.29C85.887 98.2068 55.8599 76.9218 79.4519 94.1752C69.0877 87.0528 73.4018 90.3974 80.0091 95.3022C66.1907 85.8765 63.015 85.8473 79.9429 97.4375C62.7167 85.5018 100.808 113.376 72.2383 92.6637C92.4472 107.48 101.014 114.975 87.4481 104.505C75.523 96.1089 42.4599 73.1036 71.4825 94.308C110.096 121.245 23.3849 61.1277 68.7643 94.1353C48.4727 80.8354 93.1834 112.307 100.961 118.216C120.254 90.9214 152.061 73.0913 188.029 73.0913C233.15 73.0913 271.707 101.147 287.243 140.759C307.318 133.729 327.346 126.586 347.445 119.609C339.414 121.991 298.941 134.566 324.465 125.165C336.902 115.439 298.022 129.141 319.837 121.359C327.047 118.965 362.799 106.305 337.672 114.623C327.2 117.545 330.204 114.156 333.27 112.236C324.954 114.51 308.536 119.352 324.757 113.032C330.891 110.441 329.925 110.119 338.189 104.744C324.957 109.682 321.681 110.189 320.434 110.552C326.276 107.689 328.823 105.513 317.795 108.099C339.044 100.505 304.128 110.13 308.274 108.258C317.678 105.992 327.072 100.981 312.239 105.884C303.767 109.319 295.204 112.585 286.58 115.737C291.625 112.152 296.934 109.032 302.665 106.68C317.047 96.4318 331.213 85.9139 344.302 74.4438C330.459 84.6417 285.678 120.166 321.8 90.7936C299.263 108.126 318.095 92.2343 318.233 92.0934C300.364 106.662 279.917 120.237 309.533 98.233C330.565 82.0206 325.978 85.0177 308.393 98.7898C282.023 119.283 333.186 78.7011 301.299 103.06C292.956 109.439 283.652 116.375 282.257 117.314C282.221 117.328 282.186 117.342 282.151 117.354C282.598 116.943 286.35 114.035 295.57 107.011C310.332 96.403 353.033 61.2393 317.914 88.6326C274.472 121.006 355.851 58.5308 320.447 84.9858C314.232 89.7035 305.131 96.3333 296.777 102.476C313.625 89.6314 330.499 76.4945 311.523 90.8735C313.969 88.9241 316.436 86.9573 318.696 85.1051C316.184 86.9352 314.141 88.4476 312.451 89.7197C315.838 86.8712 320.432 82.8404 325.725 77.759C320.94 80.986 283.346 108.651 307.186 89.3221C306.332 89.8657 305.477 90.405 304.627 90.9528C310.072 86.6615 315.455 82.3134 320.752 77.8783C316.422 81.2063 305.797 89.3424 297.626 95.5543C295.966 96.6618 294.312 97.7744 292.666 98.8959C293.872 97.939 295.262 96.8349 296.936 95.5144C295.061 96.9953 293.721 98.0472 292.401 99.0818C291.481 99.7093 290.559 100.333 289.643 100.965C292.452 98.6761 296.842 95.1673 301.193 91.7752C290.159 101.835 314.855 81.0722 293.356 97.4506C246.453 131.997 335.908 64.3264 298.169 92.5309C301.401 88.7408 305.924 85.7989 290.889 97.1723C281.691 103.134 329.384 65.6566 295.04 91.8151C303.145 85.0355 313.754 75.8885 295.106 89.8525C279.125 102.31 268.701 109.365 290.067 92.4647C307.603 79.5332 330.02 59.8 302.797 81.2992C284.564 95.5008 280.866 97.6662 301.432 81.6311C319.394 68.3099 317.391 68.8722 303.274 79.3634C314.406 70.6561 326.622 62.9014 308.154 74.0461C331.451 56.564 298.202 79.9257 306.033 74.3776C322.419 61.7477 294.152 82.3643 291.817 83.978C292.634 83.353 295.533 81.1868 301.67 76.6451C318.32 64.2322 291.063 84.0969 311.549 67.7473C292.507 81.1932 312.902 66.8477 293.9 81.1932C267.03 101.224 310.681 67.7147 294.616 78.9921C295.082 78.6314 295.123 78.5979 295.557 78.2627C298.367 76.2289 300.954 74.2031 303.102 72.415C305.958 70.1818 306.247 69.9119 304.773 70.996C307.86 68.3201 309.538 66.5189 308.658 66.8189C308.553 66.3959 307.005 66.9538 305.82 67.3493C291.603 77.9643 268.329 94.8966 290.293 78.2627C290.903 77.9258 291.588 77.4586 292.521 76.6184C308.275 65.2051 312.138 60.613 297.215 71.6987C298.403 70.3467 299.738 68.764 301.405 66.7658C288.573 77.2973 259.977 97.2189 289.524 74.9479C309.643 60.565 309.824 57.6571 290.213 73.4228C264.736 92.1197 292.374 70.3633 292.547 69.7892C296.656 66.7 298.675 65.1619 299.177 64.7639C298.552 65.2043 295.599 67.3761 291.605 70.3727C292.202 69.9552 292.508 69.7676 292.534 69.7892C290.337 71.4415 287.784 73.3587 284.299 75.9688C284.199 76.015 284.113 76.0464 284.02 76.088C286.734 74.0317 289.301 72.1027 291.605 70.3727C290.486 71.1573 288.291 72.7761 284.471 75.6373C284.194 75.8394 283.879 76.0672 283.596 76.2738C277.174 78.9743 290.032 68.6702 297.599 62.8938C298.435 61.7604 272.712 80.6322 260.841 89.4146C266.509 79.3316 272.912 69.7213 281.368 61.5015C282.766 59.3489 284.157 57.1882 285.545 55.0305C280.029 62.3774 280.019 58.2843 272.351 70.4257C282.079 54.1686 275.654 61.0984 270.84 68.1054C274.194 62.4817 277.864 56.7117 278.04 56.3433C277.814 56.6294 276.015 59.3196 271.635 65.904C287.271 40.5484 256.544 87.5404 264.674 74.7488C269.952 66.2304 281.704 46.2612 268.917 66.1162C274.873 56.5055 285.354 38.9113 271.131 59.9103C288.797 32.7496 258.632 77.3398 268.93 59.2076C267.09 61.7647 264.81 65.0134 262.3 68.6491C270.877 55.4416 275.46 48.2059 271.277 54.6062C267.043 60.9792 262.648 66.9993 262.101 67.4423C263.851 64.7919 265.727 61.8813 267.67 58.8363C263.229 65.3103 261.784 67.6468 262.088 67.4423C253.131 81.006 248.189 87.2985 262.578 64.4719C262.836 62.8781 262.896 61.9993 262.844 61.5677C263.559 60.2888 264.687 58.0797 266.45 54.301C264.137 56.7495 260.4 62.3562 257.102 67.6013C258.811 64.6815 260.757 61.3297 263.268 56.993C259.834 57.6062 231.473 104.858 252.991 69.4047C261.364 56.1477 279.13 26.5861 260.006 55.813C255.583 62.4198 260.883 53.7413 263.162 49.7925C262.372 50.858 261.511 51.9774 260.589 53.1342C259.506 54.7742 258.227 56.7278 256.492 59.393C255.085 61.5041 254.288 62.6736 253.959 63.159C254.54 62.2437 257.211 58.1259 259.688 54.248C259.137 54.9223 258.578 55.6016 257.991 56.2903C259.063 54.3966 259.908 52.8812 260.709 51.4368C260.518 51.6994 260.402 51.8475 260.192 52.1399C260.442 51.7648 260.642 51.4728 260.881 51.1185C267.665 38.8587 264.572 42.9005 255.431 56.7278C260.639 48.0197 259.184 49.6393 257.009 52.6037C256.516 53.359 256.2 53.8097 256.081 53.9035C256.078 53.909 256.071 53.9119 256.067 53.9166C255.293 54.4012 263.055 39.7328 253.376 55.8261C263.221 38.8553 241.224 72.7727 254.635 51.3175C258.111 46.6466 255.135 49.3275 254.092 50.0183C262.378 36.6878 267.114 27.6656 251.718 50.3497C247.621 56.4054 245.729 59.208 245.141 60.0826C246.539 57.9567 253.653 47.1307 252.978 46.955C247.355 55.0695 237.938 69.3645 237.477 69.8559C237.55 69.6348 239.859 65.9367 245.95 56.3964C256.513 38.403 248.274 49.3207 243.656 56.1181C250.669 44.4102 257.926 35.2752 244.067 53.227C247.851 44.4255 237.022 61.3925 233.405 67.1507C234.343 65.6392 235.868 63.1742 238.153 59.4596C248.561 43.0015 251.065 40.5362 238.245 58.0938C246.771 42.4528 235.556 60.7005 225.661 76.234C226.99 65.3133 229.016 54.6283 233.193 44.7141C234.937 35.5553 236.604 26.3816 238.166 17.1986C230.665 52.9432 238.092 16.3365 231.311 42.0485C224.058 79.0362 236.42 10.9699 228.924 47.6313C228.692 48.4898 228.571 48.909 228.433 49.408C228.619 49.0083 228.507 50.1519 226.974 57.4704C222.857 76.5722 235.723 0.930616 228.579 38.3754C227.267 45.1664 226.708 47.7286 226.603 47.8168C226.391 47.1125 232.272 12.4856 227.412 37.5268C224.922 49.1802 217.581 87.7384 223.195 56.0251C224.101 50.4205 225.308 44.0929 226.073 40.391C228.901 20.3264 223.335 37.5141 218.647 55.773C220.167 47.6959 221.609 39.5992 222.93 31.4932C218.91 45.2216 212.236 83.4069 217.997 47.6577C221.421 31.6527 216.245 46.644 219.15 27.2498C214.569 55.5494 219.599 21.128 213.886 52.1001C213.651 52.2439 215.394 33.7901 211.406 53.9828C201.169 103.418 223.212 -15.9397 211.911 40.4839C208.81 54.3672 216.789 9.70708 210.346 42.5127C209.629 46.192 209.29 47.8974 208.887 49.9783C210.57 41.137 213.245 26.6867 210.916 36.1477C214.345 19.9454 205.697 40.2107 207.667 40.0595C206.218 46.6605 204.403 55.8231 203.477 60.5736C203.872 58.5389 204.361 56.0285 205.532 49.9121C207.694 40.7908 207.763 31.9918 206.5 37.1822C208.723 23.1792 198.032 74.2914 204.578 40.4708C206.992 26.7363 200.582 58.6275 204.723 35.9355C204.997 32.559 204.839 32.1767 204.498 33.2834C207.877 16.6071 205.8 18.8608 203.45 31.4668C206.349 14.9514 193.069 83.8652 201.342 41.0143C202.934 25.2385 200.706 35.2939 198.504 47.0874C201.868 20.6714 196.447 54.8717 195.123 53.0018C197.527 39.886 197.411 33.7985 194.274 50.6148C195.373 41.2375 195.089 40.7495 194.208 44.3691C196.618 31.5445 198.117 23.214 192.736 47.4854C194.989 29.259 191.594 43.5246 187.803 61.5945C183.703 47.9916 179.54 34.3909 176.558 20.5934ZM173.15 0C173.895 6.93102 175.086 13.7832 176.558 20.5934C175.955 12.9646 174.553 3.61746 173.15 0Z" fill="#FFD652"/>
<path d="M125.286 161.914C123.391 164.335 119.444 166.163 115.246 165.667C115.991 165.083 118.133 165.741 117.913 164.318C114.174 163.877 112.92 164.871 110.176 165.032C110.339 166.962 109.579 168.934 108.488 169.977C107.395 171.021 105.972 171.146 104.742 169.367C102.067 171.256 99.843 171.521 97.2274 171.157C98.5671 170.608 99.7454 170.418 100.437 170.067C104.157 168.21 103.026 168.175 100.651 168.648C98.2785 169.121 94.6912 170.18 93.5235 170.4C91.2325 175.159 87.102 176.452 83.1349 176.526C84.7872 175.836 86.4511 175.172 88.1127 174.518C86.1574 173.849 83.9016 174.18 82.0579 174.937C80.2121 175.691 78.7889 176.868 78.4563 177.849C79.5409 177.261 80.4222 177.347 81.0875 178.099C73.1334 181.213 66.0038 184.83 59.1533 189.112C52.3058 193.4 45.732 198.371 38.9563 204.416C39.3713 205.625 40.0439 205.165 40.5866 205.565C40.4912 206.066 39.3064 208.241 38.557 206.979C38.1976 206.221 39.0204 205.961 38.8231 205.27C36.2329 206.757 36.334 208.448 33.9462 208.75C34.3273 211.215 35.4857 208.095 36.003 209.572C34.6875 210.557 34.4822 211.987 32.6847 212.797C31.3306 210.149 29.4509 214.542 25.7841 216.594C23.7665 216.742 21.0533 218.8 18.3962 221.495C15.7331 224.183 13.1378 227.509 11.2108 230.038C6.61583 236.041 1.97315 242.633 0 249.907C0.818997 249.543 0.388315 246.894 1.72069 248.053C0.261015 250.235 2.65253 253.143 2.91181 255.619C3.79354 254.154 4.71143 253.931 5.64113 254.434C5.19425 253.342 4.33207 252.174 4.5387 251.208C6.08962 252.847 5.42257 249.634 6.9684 251.279C5.92118 252.322 6.27803 254.573 7.70552 254.87C8.69795 253.642 11.7821 252.006 13.8443 252.875C14.631 250.74 16.1812 247.587 18.0019 245.174C19.8176 242.758 21.8905 241.093 23.6078 241.863C23.2832 241.187 22.6361 240.405 23.0027 239.941C25.7549 240.227 27.8871 238.294 30.1561 236.377C32.4178 234.461 34.8216 232.574 37.9078 233.052C36.8414 230.321 37.3435 234.701 36.2733 231.974C37.817 229.694 38.0278 232.477 38.6428 232.479C38.2554 230.614 39.7078 229.301 41.423 228.466C43.1364 227.622 45.1108 227.269 45.7596 227.164C43.781 229.461 40.2268 231.697 40.1253 235.254C39.3509 232.337 39.9921 234.383 39.4562 234.993C38.1378 236.484 35.5362 238.561 32.9121 240.75C30.288 242.938 27.6483 245.236 26.1737 246.983C28.6909 246.332 30.8605 243.853 33.0263 241.552C35.1853 239.25 37.3439 237.136 39.6216 237.23C39.4465 238.457 38.0054 239.186 38.3529 240.621C41.6954 238.606 45.2551 235.739 49.0724 232.979C52.8843 230.218 56.9493 227.566 61.1243 225.917C60.3813 227.218 58.4422 228.186 56.3935 229.483C54.3465 230.777 52.1861 232.4 51.0541 234.892C51.9626 235.373 53.0365 234.33 54.1033 233.461C55.1692 232.593 56.2317 231.906 57.0478 233.053C57.5587 236.529 54.2968 235.218 54.45 237.861C56.4618 235.946 60.1577 234.979 61.1706 232.599C59.4962 231.363 59.2136 234.485 57.5756 234.199C57.1305 233.089 56.9358 232.105 57.2612 231.393C59.6502 231.632 60.2502 227.979 62.2777 229.651C63.013 231.66 59.8738 227.986 61.4077 230.95C61.0293 233.001 64.1685 230.552 64.9234 232.467C61.8241 233.924 60.9643 236.211 59.0099 236.266C60.2795 237.346 61.8029 236.255 63.375 235.018C64.9446 233.781 66.5622 232.386 67.9014 232.855C68.2243 233.637 67.4842 233.798 67.6624 234.491C70.368 234.142 71.854 232.825 73.444 231.561C75.0306 230.304 76.7173 229.092 79.7318 229.094C79.2374 230.62 74.9775 231.392 77.2706 233.318C78.3552 234.959 77.3813 231.687 77.9287 231.513C79.1182 235.105 79.4631 230.502 80.2563 231.708C80.6335 234.104 78.8513 235.029 80.2138 237.501C79.4288 238.647 77.8647 234.672 77.922 237.317C79.0656 238.086 78.2246 238.474 77.274 238.992C76.3197 239.505 75.2568 240.156 75.9586 241.348C77.1624 240.275 78.9318 238.988 80.931 238.129C82.9287 237.27 85.1505 236.845 87.2022 237.461C83.6059 238.994 79.4152 241.188 75.1948 243.705C70.9727 246.22 66.7255 249.064 62.9557 251.77C67.0446 249.643 70.3506 247.857 73.6485 246.041C76.9477 244.234 80.2426 242.395 84.3561 240.354C85.5133 241.707 87.3074 240.665 89.4095 239.451C91.5083 238.237 93.9274 236.858 96.1794 237.449C96.2493 239.517 93.7403 236.713 94.7552 239.516C95.5419 240.87 96.2854 237.417 97.5139 238.971C97.4328 237.169 95.519 236.828 97.0916 236.346C97.7209 236.554 97.4438 238.066 98.45 239.262C100.968 239.601 100.042 234.971 101.565 237.226C100.921 235.04 100.334 235.65 99.7628 236.422C99.1929 237.198 98.6404 238.129 98.0264 236.624C98.0264 234.26 99.9372 235.816 101.562 234.432C102.104 236.108 101.313 235.933 102.303 236.911C104.854 237.181 105.694 235.383 107.892 234.699C106.558 231.652 104.379 234.022 104.168 236.154C103.822 233.923 102.49 235.691 101.937 234.28C104.796 232.855 104.941 232.507 107.583 232.063L108.269 234.562C109.676 233.786 113.736 233.361 114.844 232.907C116.71 231.003 120.013 230.327 123.354 229.707C126.698 229.075 130.076 228.494 132.224 226.541C131.606 225.056 130.133 228.581 129.506 225.2C139.5 223.115 149.412 221.655 160.308 220.446L160.048 219.674C163.745 219.007 167.272 218.246 170.493 217.22C170.56 218.427 171.67 217.665 171.891 218.578C172.967 216.056 177.121 217.07 178.473 214.343C179.092 214.742 179.914 214.777 180.199 215.768C179.071 217.771 177.505 214.838 177.064 218.177C182.419 217.258 186.58 216.767 190.996 216.388C195.417 216.021 200.089 215.769 206.558 215.62C207.663 214.906 208.473 213.485 209.624 212.862C212.29 214.228 215.385 213.552 220.57 214.978C221.309 218.039 224.632 218.357 227.031 218.398C231.913 218.467 237.414 218.215 243.045 218.598C248.672 218.975 254.422 219.992 259.682 222.514C261.574 219.42 264.475 221.478 265.05 223.732C273.131 226.027 281.803 226.861 290.273 228.304C298.729 229.736 306.966 231.779 313.807 236.208C308.313 235.577 303.937 232.159 298.845 232.283C299.614 234.277 302.396 234.423 304.827 235.051C307.256 235.673 309.315 236.773 308.561 240.482C308.022 239.615 306.41 240.489 307.183 241.176C308.166 240.031 309.763 241.885 310.785 240.916C310.18 240.51 309.77 239.941 309.792 239.019C312.894 240.023 316.227 240.203 319.503 240.716C322.776 241.229 325.99 242.071 328.764 244.356C327.05 246.028 324.253 243.638 324.321 246.781C326.24 245.283 327.341 248.455 330.104 245.135C330.908 246.229 334.206 246.701 335.657 245.55C336.493 246.421 339.741 246.933 337.92 248.319C341.848 250.5 345.369 250.492 349.368 251.897C349.04 252.822 348.529 253.861 349.342 254.053C352.212 251.85 354.143 255.542 357.539 256.586C357.141 257.522 356.499 256.287 356.082 257.06C357.711 258.812 357.555 257.308 358.446 256.467C357.5 258.907 359.522 259.505 360.419 257.825C359.903 257.124 358.261 258.599 359.342 256.349C365.704 259.198 370.953 262.244 378.812 266C376.699 264.022 373.748 262.388 371.437 260.89C369.126 259.387 367.448 258.007 367.892 256.437C367.033 256.048 365.008 255.749 362.839 255.031C360.667 254.31 358.351 253.173 356.883 251.034C358.458 251.04 359.175 253.395 360.933 251.585C358.064 249.835 354.149 248.503 352.89 246.228C356.338 246.534 361.554 250.657 364.656 251.955C360.762 248.245 356.217 245.168 352.903 244.058C354.91 240.103 349.342 241.651 352.336 237.913C351.349 236.128 351.247 240.333 350.412 239.573C350.69 238.671 351.361 237.525 350.965 237.051L349.851 239.929C349.805 237.617 347.805 237.717 346.434 237.789C348.31 232.895 347.726 233.939 345.967 236.794C344.252 234.795 340.663 235.176 338.381 232.218C339.132 230.257 339.861 233.177 340.127 229.691C338.937 230.117 338.823 230.891 338.6 228.09C335.742 230.128 333.168 226.48 332.793 225.461C331.135 225.222 327.622 224.112 324.024 222.614C320.426 221.109 316.74 219.214 314.761 217.221C315.076 217.225 315.467 217.556 315.654 216.975C310.697 214.956 304.992 214.21 299.368 213.124C293.734 212.034 288.174 210.603 283.287 207.071C283.118 208.291 281.821 208.439 280.556 208.697C281.797 204.946 276.037 207.441 275.769 205.482C278.856 204.155 282.423 205.377 285.809 206.463C289.201 207.544 292.42 208.485 294.992 206.545C292.281 206.02 288.513 205.198 284.642 204.197C280.771 203.19 276.793 202.01 273.656 200.645C285.425 202.337 296.559 205.162 307.907 208.821C319.256 212.498 330.827 217.003 343.576 222.489C345.124 223.919 348.547 224.713 345.197 222.741C335.807 216.676 324.569 211.983 313.383 208.019C302.187 204.031 291.051 200.781 281.623 196.942C285.027 197.189 288.327 198.503 291.357 199.45C294.389 200.395 297.158 200.966 299.602 199.697C299.386 200.676 298.998 201.807 299.853 201.868C300.896 201.348 299.79 200.171 300.709 200.2C300.154 203.081 301.785 201.149 302.414 203.025C302.722 202.137 302.889 200.702 303.438 200.741C302.32 204.492 306.55 202.808 307.266 201.828C305.98 204.638 311.917 205.941 311.823 203.313C307.103 200.849 299.358 199.227 292.606 196.66C291.8 196.113 291.755 198.267 291.043 198.042C292.562 194.065 286.808 197.902 287.431 194.509C295.424 195.893 304.598 198.351 313.932 201.548C323.269 204.733 332.76 208.656 341.454 212.719C341.952 211.978 342.097 209.434 342.846 209.986C343.816 210.515 347.704 213.467 349.554 213.238C347.035 211.723 344.507 210.234 341.967 208.776C341.387 209.703 342.173 211.825 340.94 211.716C341.126 210.99 341.582 210.074 341.191 209.738C339.362 213.313 336.571 209.352 336.084 208.265C338.072 205.564 339.89 211.813 341.601 208.556C336.195 206.325 329.753 203.462 325.151 200.985C324.092 203.201 327.142 201.423 326.231 204.328C323.393 202.144 321.676 203.906 319.636 200.951C320.553 198.893 322.575 201.464 324.05 201.794C325.203 201.052 321.476 200.036 320.553 199.319C316.652 197.922 311.076 196.774 307.801 193.832C313.614 194.434 319.96 196.725 326.077 199.338C332.201 201.947 338.096 204.867 343.153 206.619C342.599 206.233 341.862 205.98 342.469 204.819C346.755 207.156 351.285 209.89 355.485 212.718C359.684 215.543 363.548 218.455 366.536 221.069C367.107 221.324 367.764 222.149 368.192 221.445C356.768 211.084 344.234 203.769 331.609 197.931C318.966 192.083 306.22 187.693 293.887 182.915C288.322 180.753 282.262 179.614 277.118 178.37C273.432 177.474 268.879 178.828 266.507 173.967C274.397 175.116 283.869 177.951 293.536 181.353C303.211 184.74 313.066 188.69 321.975 191.706C328.21 193.8 336.548 197.886 344.347 202.479C352.156 207.053 359.427 212.131 363.768 215.642C369.3 220.135 363.36 213.459 362.147 211.712C362.792 210.436 363.946 212.154 364.639 211.135C361.382 209.933 361.189 206.935 358.175 205.62C357.155 208.319 361.954 207.521 360.345 210.565C357.659 207.551 351.8 206.569 352.514 201.465C350.111 200.777 348.206 199.104 346.195 197.746C344.188 196.389 342.08 195.353 339.327 195.993C339.526 193.889 340.39 194.871 340.865 194.029C338.095 193.255 339.046 189.095 336.2 190.772C336.822 191.417 338.726 191.189 337.683 192.977C331.997 189.266 328 187.578 321.563 187.341C320.65 184.253 315.92 184.065 314.131 181.666C310.966 182.792 308.649 180.806 306.432 178.954C304.22 177.106 302.113 175.394 299.522 177.134C293.417 172.834 286.875 170.959 280.358 169.406C273.829 167.85 267.319 166.613 260.973 163.497C260.249 164.333 259.348 164.685 258.299 164.662C250.583 163.513 242.873 162.05 235.055 160.692C227.238 159.337 219.316 158.095 211.241 157.464C205.597 157.026 200.07 158.989 194.319 159.678C188.296 160.395 181.78 158.848 175.67 159.413C169.821 159.953 163.702 160.417 157.579 161.061C151.86 161.657 146.142 162.423 140.664 163.461L140.195 162.096C135.36 162.862 130.53 163.671 125.736 164.479C125.199 162.561 123.968 164.403 125.285 161.914H125.286Z" fill="#89B554"/>
<path d="M528.052 211.333V207.896H525.08C524.52 207.906 524.015 207.794 523.565 207.559C523.115 207.326 522.877 206.911 522.851 206.318V197.403H530.142C533.297 197.409 535.808 196.722 537.675 195.342C539.542 193.961 540.498 191.846 540.543 188.998C540.521 186.35 539.566 184.286 537.675 182.805C535.785 181.323 533.088 180.571 529.584 180.547H511.382V183.983H514.354C514.905 183.973 515.371 184.086 515.753 184.32C516.135 184.554 516.334 184.968 516.351 185.562V206.318C516.334 206.911 516.135 207.326 515.753 207.559C515.371 207.794 514.905 207.906 514.354 207.896H511.382V211.333H528.052ZM522.851 183.983H527.077C529.468 183.971 531.186 184.367 532.231 185.173C533.276 185.979 533.787 187.269 533.763 189.045C533.757 190.814 533.188 192.081 532.057 192.846C530.925 193.611 529.265 193.985 527.077 193.966H522.851V183.983Z" fill="#89B554"/>
<path d="M562.938 198.006L566.653 186.816H566.746L570.785 198.006L562.938 198.006V198.006ZM564.981 211.333V207.897H561.359C560.911 207.902 560.553 207.845 560.286 207.722C560.017 207.601 559.88 207.38 559.873 207.06C559.875 206.855 559.894 206.675 559.931 206.521C559.968 206.367 560.011 206.222 560.059 206.086L561.591 201.442H572.132L573.664 206.086C573.713 206.228 573.755 206.396 573.792 206.59C573.829 206.785 573.848 206.988 573.85 207.2C573.856 207.432 573.75 207.606 573.531 207.722C573.311 207.839 572.938 207.897 572.41 207.897H568.742V211.333H584.901V207.897C583.673 207.928 582.658 207.783 581.854 207.461C581.05 207.139 580.441 206.448 580.026 205.389L570.739 180.547H564.238L555.369 205.389C554.975 206.448 554.371 207.139 553.559 207.461C552.746 207.783 551.724 207.928 550.494 207.897V211.333H564.981Z" fill="#89B554"/>
<path d="M611.166 211.333V207.896H608.473C607.688 207.896 607.111 207.701 606.743 207.315C606.376 206.931 606.194 206.366 606.198 205.621V186.212C606.227 185.347 606.528 184.754 607.103 184.435C607.678 184.116 608.351 183.966 609.123 183.983H611.166V180.547H594.729V183.983H597.329C598.22 183.998 598.841 184.201 599.192 184.592C599.543 184.984 599.712 185.477 599.697 186.072V206.225C599.706 206.822 599.503 207.252 599.088 207.513C598.673 207.775 597.994 207.902 597.05 207.896H594.729V211.333H611.166Z" fill="#89B554"/>
<path d="M646.27 211.333H653.142V185.608C653.134 185.134 653.312 184.747 653.676 184.447C654.04 184.148 654.636 183.993 655.464 183.983H658.203V180.547H643.066V183.983H645.898C646.73 183.987 647.341 184.177 647.732 184.552C648.123 184.927 648.316 185.465 648.313 186.165V202.696H648.22L634.708 180.547H621.01V183.983H624.26C624.97 183.977 625.467 184.105 625.752 184.366C626.037 184.627 626.175 185.057 626.164 185.655V206.039C626.175 206.603 626.037 207.053 625.752 207.385C625.467 207.718 624.97 207.888 624.26 207.896H621.01V211.333H636.379V207.896H632.897C632.289 207.889 631.821 207.718 631.493 207.385C631.163 207.053 630.997 206.603 630.993 206.039V186.397H631.086L646.27 211.333Z" fill="#89B554"/>
<path d="M668.063 180.547V193.223H671.499V191.134C671.498 188.682 672.139 186.875 673.42 185.713C674.702 184.55 676.631 183.973 679.208 183.983V206.225C679.218 206.822 679.081 207.252 678.796 207.514C678.51 207.775 678.012 207.902 677.304 207.896H673.775V211.333H691.141V207.896H687.612C686.903 207.902 686.406 207.775 686.12 207.514C685.834 207.252 685.698 206.822 685.708 206.225V183.983C688.284 183.973 690.213 184.55 691.495 185.713C692.776 186.875 693.417 188.682 693.416 191.134V193.223H696.852L696.852 180.547H668.063Z" fill="#89B554"/>
<path d="M723.425 211.333V207.896H720.732C719.947 207.896 719.369 207.701 719.002 207.315C718.634 206.931 718.453 206.366 718.457 205.621V186.212C718.486 185.347 718.788 184.754 719.362 184.435C719.936 184.116 720.61 183.966 721.382 183.983H723.425V180.547H706.988V183.983H709.588C710.478 183.998 711.1 184.201 711.451 184.592C711.802 184.984 711.97 185.477 711.956 186.072V206.225C711.964 206.822 711.762 207.252 711.346 207.513C710.932 207.775 710.252 207.902 709.309 207.896H706.988V211.333H723.425Z" fill="#89B554"/>
<path d="M758.529 211.333H765.401V185.608C765.393 185.134 765.571 184.747 765.935 184.447C766.299 184.148 766.895 183.993 767.723 183.983H770.463V180.547H755.325V183.983H758.158C758.989 183.987 759.601 184.177 759.992 184.552C760.382 184.927 760.576 185.465 760.572 186.165V202.696H760.479L746.967 180.547H733.269V183.983H736.519C737.229 183.977 737.726 184.105 738.011 184.366C738.296 184.627 738.434 185.057 738.423 185.655V206.039C738.434 206.603 738.296 207.053 738.011 207.385C737.726 207.718 737.229 207.888 736.519 207.896H733.269V211.333H748.638V207.896H745.156C744.549 207.889 744.08 207.718 743.751 207.385C743.423 207.053 743.257 206.603 743.252 206.039V186.397H743.345L758.529 211.333Z" fill="#89B554"/>
<path d="M804.375 183.102C803.145 182.063 801.762 181.227 800.225 180.594C798.688 179.962 796.991 179.637 795.135 179.619C790.536 179.712 786.929 181.256 784.316 184.25C781.702 187.246 780.371 191.134 780.322 195.917C780.377 200.946 781.719 204.912 784.351 207.816C786.981 210.72 790.576 212.202 795.135 212.262C796.837 212.262 798.539 211.984 800.243 211.432C801.945 210.879 803.462 210.057 804.792 208.965L806.51 211.333H809.854V200.654C809.831 199.744 809.992 199.125 810.335 198.795C810.679 198.467 811.339 198.313 812.314 198.332H814.683V194.895H797.92V198.332H800.892C801.523 198.326 802.084 198.5 802.576 198.854C803.067 199.208 803.326 199.777 803.353 200.56V202.325C803.36 204.116 802.801 205.548 801.676 206.62C800.551 207.692 798.819 208.241 796.48 208.269C793.247 208.195 790.95 207.019 789.591 204.739C788.232 202.46 787.572 199.519 787.612 195.917C787.629 192.397 788.338 189.488 789.737 187.188C791.135 184.887 793.12 183.695 795.692 183.612C798.659 183.703 800.874 184.624 802.338 186.375C803.801 188.126 804.821 190.161 805.396 192.481H808.972V180.547H805.536L804.375 183.102Z" fill="#89B554"/>
<path d="M456.911 165.25H473.204V144.883H476.462V136.166H449.416V144.883H454.385V148.304C453.815 149.398 452.939 150.328 451.758 151.095C450.577 151.862 448.845 152.263 446.565 152.297C442.999 152.192 440.253 150.732 438.326 147.917C436.4 145.104 435.426 141.566 435.404 137.307C435.456 133.105 436.491 129.534 438.51 126.594C440.528 123.655 443.212 122.12 446.565 121.992C449.039 122.01 451.157 122.91 452.919 124.69C454.681 126.47 455.658 129.02 455.852 132.337H470.434V108.305H458.296L456.585 114.171C456.091 113.315 454.757 112.012 452.583 110.26C450.409 108.509 446.448 107.531 440.699 107.327C434.097 107.467 428.34 110.243 423.428 115.657C418.517 121.072 415.937 128.288 415.689 137.307C415.864 146.2 418.345 153.179 423.133 158.244C427.921 163.308 433.966 165.888 441.269 165.983C444.448 165.927 447.194 165.326 449.507 164.18C451.821 163.035 453.447 161.68 454.385 160.117L456.911 165.25Z" fill="#283C48"/>
<path d="M503.307 154.582H499.234L499.234 146.192C499.254 142.679 500.252 140.275 502.228 138.981C504.203 137.688 507.034 137.078 510.72 137.149V122.485C506.656 122.543 503.767 123.262 502.055 124.644C500.342 126.025 499.021 127.723 498.093 129.736L495.649 124.522H480.333V135.112H483.837V154.582H480.252V165.254H503.307V154.582Z" fill="#283C48"/>
<path d="M535.34 134.374C537.867 134.452 539.513 135.151 540.279 136.471C541.044 137.792 541.408 139.265 541.368 140.89H529.067C529.089 139.728 529.533 138.387 530.401 136.868C531.268 135.349 532.915 134.518 535.34 134.374ZM548.619 151.726C546.392 153.493 544.288 154.602 542.305 155.056C540.323 155.509 538.626 155.702 537.214 155.636C533.9 155.495 531.708 154.657 530.635 153.121C529.563 151.585 528.958 150.197 528.823 148.956H554.484C555.287 146.529 555.596 144.01 555.411 141.4C555.226 138.789 554.863 136.719 554.321 135.188C553.083 131.702 550.754 128.878 547.336 126.716C543.918 124.553 539.756 123.44 534.851 123.376C528.556 123.426 523.366 125.3 519.281 128.996C515.196 132.693 513.081 137.907 512.937 144.638C513.201 152.401 515.523 158.036 519.902 161.542C524.281 165.048 529.128 166.773 534.444 166.715C538.649 166.746 542.458 166.216 545.869 165.127C549.281 164.037 552.478 162.204 555.462 159.628L548.619 151.726Z" fill="#283C48"/>
<path d="M578.201 156.206C576.952 156.19 575.927 155.836 575.126 155.147C574.325 154.458 573.911 153.535 573.883 152.377C573.877 151.093 574.257 150.058 575.024 149.272C575.791 148.486 576.986 148.082 578.609 148.06C580.291 148.133 581.489 148.475 582.203 149.089C582.918 149.701 583.321 150.145 583.415 150.422V153.518C583.03 154.165 582.375 154.766 581.45 155.32C580.525 155.876 579.442 156.171 578.201 156.206ZM563.537 137.388C565.097 136.483 566.906 135.645 568.965 134.873C571.024 134.1 573.26 133.689 575.676 133.64C577.923 133.601 579.763 133.903 581.195 134.547C582.627 135.19 583.367 136.409 583.415 138.203V141.054C583.201 140.721 582.407 140.185 581.032 139.445C579.658 138.705 577.763 138.29 575.35 138.203C570.616 138.251 566.642 139.599 563.426 142.246C560.209 144.891 558.536 148.54 558.405 153.192C558.59 157.894 560.297 161.342 563.527 163.538C566.757 165.735 570.399 166.82 574.454 166.797C576.007 166.839 577.83 166.489 579.922 165.748C582.015 165.006 583.858 163.618 585.452 161.583L587.407 165.249H604.84V154.821H599.953V138.935C599.861 134.599 598.677 131.206 596.401 128.756C594.125 126.305 591.306 124.584 587.944 123.59C584.581 122.597 581.225 122.118 577.875 122.153C574.06 122.273 570.571 122.992 567.407 124.312C564.243 125.633 561.813 126.841 560.116 127.937L563.537 137.388Z" fill="#283C48"/>
<path d="M607.836 135.107H612.235V149.608C612.115 154.883 612.763 159.037 614.18 162.073C615.597 165.106 619.239 166.655 625.107 166.715C626.185 166.712 627.756 166.577 629.822 166.308C631.887 166.04 633.601 165.66 634.964 165.168V154.74C634.139 155.083 633.222 155.395 632.215 155.677C631.206 155.959 630.412 156.108 629.832 156.125C628.333 156.027 627.502 155.287 627.337 153.905C627.172 152.523 627.135 151.091 627.225 149.608V135.107H634.964V124.517H627.225V112.215L612.235 117.022V124.517H607.836V135.107Z" fill="#283C48"/>
<path d="M685.11 118.898C687.492 118.907 689.345 119.543 690.669 120.803C691.994 122.064 692.666 123.9 692.686 126.312C692.648 128.483 691.908 130.15 690.466 131.312C689.023 132.475 687.102 133.062 684.702 133.074H681.036V118.898H685.11ZM659.773 118.98H664.335V154.499H659.773V165.253H686.005V154.499H681.036V141.872H687.227C693.216 141.872 698.244 140.528 702.309 137.839C706.373 135.152 708.489 131.119 708.652 125.742C708.897 120.952 707.512 116.886 704.498 113.542C701.484 110.199 695.374 108.454 686.169 108.308H659.773V118.98Z" fill="#283C48"/>
<path d="M736.332 154.577H731.525V104.151H712.625V114.66H716.047V154.577H712.543V165.249H736.331L736.332 154.577Z" fill="#283C48"/>
<path d="M759.154 156.206C757.905 156.19 756.88 155.836 756.079 155.147C755.278 154.458 754.864 153.535 754.837 152.377C754.83 151.093 755.21 150.058 755.977 149.272C756.744 148.486 757.939 148.082 759.562 148.06C761.243 148.133 762.442 148.475 763.156 149.089C763.87 149.701 764.275 150.145 764.368 150.422V153.518C763.983 154.165 763.328 154.766 762.403 155.32C761.478 155.876 760.395 156.171 759.154 156.206ZM744.49 137.388C746.05 136.483 747.859 135.645 749.918 134.873C751.977 134.1 754.213 133.689 756.629 133.64C758.876 133.601 760.715 133.903 762.148 134.547C763.581 135.19 764.321 136.409 764.368 138.203V141.054C764.154 140.721 763.36 140.185 761.985 139.445C760.61 138.705 758.716 138.29 756.303 138.203C751.57 138.251 747.595 139.599 744.379 142.246C741.162 144.891 739.489 148.54 739.358 153.192C739.543 157.894 741.251 161.342 744.48 163.538C747.71 165.735 751.352 166.82 755.407 166.797C756.96 166.839 758.783 166.489 760.875 165.748C762.968 165.006 764.811 163.618 766.405 161.583L768.36 165.249H785.793V154.821H780.906V138.935C780.814 134.599 779.631 131.206 777.355 128.756C775.078 126.305 772.259 124.584 768.897 123.59C765.535 122.597 762.179 122.118 758.828 122.153C755.013 122.273 751.524 122.992 748.36 124.312C745.196 125.633 742.767 126.841 741.069 127.937L744.49 137.388Z" fill="#283C48"/>
<path d="M791.882 112.623C791.928 114.676 792.753 116.536 794.357 118.203C795.96 119.869 798.069 120.752 800.68 120.85C803.584 120.788 805.801 119.976 807.33 118.417C808.859 116.857 809.63 114.926 809.642 112.623C809.619 110.637 808.829 108.783 807.269 107.062C805.709 105.341 803.513 104.425 800.68 104.312C797.819 104.425 795.639 105.341 794.143 107.062C792.646 108.783 791.892 110.637 791.882 112.623ZM812.411 154.577H808.501V124.516H789.601V135.106H793.023V154.577H789.601V165.249H812.411V154.577Z" fill="#283C48"/>
<path d="M842.164 154.578H836.299V143.01C836.252 141.162 836.589 139.461 837.307 137.908C838.024 136.356 839.399 135.53 841.43 135.434C843.724 135.577 845.085 136.493 845.514 138.183C845.943 139.874 846.103 141.483 845.993 143.01V165.25H866.522V154.578H862.694V140.973C862.868 136.484 861.989 132.428 860.055 128.805C858.123 125.181 854.087 123.264 847.948 123.051C845.391 123.083 843.154 123.691 841.237 124.874C839.321 126.056 837.675 127.621 836.299 129.568L834.425 124.517H817.073V135.107H820.494V154.578H817.073V165.25H842.164V154.578Z" fill="#283C48"/>
<path d="M879.688 165.249L880.422 160.28C881.43 161.881 883.019 163.26 885.187 164.414C887.356 165.568 889.923 166.172 892.886 166.227C896.974 166.196 900.488 165.116 903.425 162.988C906.363 160.86 907.901 157.866 908.039 154.007C907.879 149.854 906.467 146.876 903.803 145.076C901.138 143.276 898.177 141.907 894.923 140.972C892.224 140.12 889.902 139.34 887.957 138.63C886.012 137.921 884.994 137.018 884.902 135.921C884.928 134.908 885.244 134.165 885.85 133.691C886.455 133.218 887.199 132.984 888.08 132.989C890.208 133.033 892.102 133.637 893.762 134.801C895.422 135.966 896.297 137.425 896.389 139.18H906.98V124.516H896.959L896.308 129.893C895.399 128.095 893.856 126.599 891.674 125.402C889.494 124.205 886.992 123.584 884.169 123.538C881.041 123.512 877.929 124.442 874.831 126.329C871.734 128.216 870.067 131.223 869.831 135.351C869.936 139.123 871.05 142.008 873.171 144.006C875.293 146.006 877.791 147.466 880.667 148.386C883.731 149.327 886.46 150.091 888.854 150.676C891.246 151.262 892.51 152.128 892.641 153.273C892.594 154.387 892.2 155.134 891.46 155.514C890.72 155.894 889.92 156.07 889.057 156.044C887.628 156.086 885.884 155.715 883.823 154.933C881.763 154.151 880.629 152.701 880.422 150.585H869.505V165.249H879.688Z" fill="#283C48"/>
</svg>
