<svg width="505" height="150" viewBox="0 0 505 150" fill="none" xmlns="http://www.w3.org/2000/svg">
<path d="M178.07 91.5867C178.582 91.6322 179.138 91.6621 179.72 91.6859C174.841 91.7204 170.151 91.7659 169.629 91.7566C169.903 91.7407 172.292 91.6918 178.07 91.5867H178.07ZM36.5416 89.01C29.4098 89.0028 25.2695 89.0712 36.5853 89.5904C22.6556 90.0028 59.4408 89.4595 36.4028 89.9374C33.3443 91.6327 7.41386 91.7686 31.591 92.4009C40.5649 92.0572 4.33177 93.3987 24.4428 93.5264C1.48026 93.7208 42.6033 93.8818 23.1285 93.9652C8.04523 94.0833 35.0757 94.3363 18.0026 94.3546C18.5096 94.9284 20.3097 95.2442 22.42 95.4023C16.6093 96.5852 27.0796 96.9449 26.2096 96.8534C40.5583 96.5985 7.75548 97.578 28.6266 97.4267C46.1686 97.144 10.1308 97.6104 28.9114 98.0213C-5.26977 98.7471 62.8348 98.545 31.4888 99.1469C14.5506 99.3578 42.9065 99.9162 26.3704 100.244C25.7075 100.239 25.5311 100.234 25.0706 100.23C27.8404 100.287 31.4049 100.447 25.319 100.818C24.8127 100.838 24.322 100.866 23.8586 100.902C23.5752 100.918 23.3766 100.929 23.0626 100.945C23.1642 100.948 23.2334 100.95 23.3329 100.952C22.7598 101.008 22.2446 101.074 21.8286 101.164C30.4874 101.866 39.1905 102.081 47.9103 102.106C47.8815 101.374 47.8665 100.636 47.8665 99.8974C47.8665 96.1777 48.2364 92.5447 48.9397 89.024C45.2716 89.0372 40.4871 89.0143 36.5416 89.01ZM192.556 96.2871C193.308 96.2746 194.002 96.254 194.557 96.2304C193.89 96.2504 193.223 96.269 192.556 96.2871ZM186.357 88.7551C187.06 88.7246 187.776 88.6875 188.511 88.6277C187.19 88.6317 186.569 88.6784 186.357 88.7551ZM191.87 69.7625C191.291 69.7718 190.036 70.0257 187.803 70.6473C178.669 72.9304 169.961 76.1428 161.269 79.3898C163.807 85.7528 165.204 92.6661 165.204 99.8974C165.204 100.641 165.182 101.384 165.153 102.12C178.454 102.226 191.761 102.379 205.05 101.78C196.485 102.014 187.243 101.153 186.16 100.619C182.247 100.38 180.247 100.29 179.413 100.258C181.159 100.317 188.084 100.442 191.958 99.4514C190.077 99.1118 187.949 98.9145 185.182 98.8285C191.385 98.7244 195.516 98.5339 186.496 98.425C195.188 97.7987 186.732 97.0375 176.61 96.5773C181.925 96.5245 187.242 96.4314 192.556 96.2871C183.491 96.4359 162.375 95.822 181.852 95.5935C189.865 94.1444 177.063 95.5071 183.67 93.6538C179.248 93.207 169.385 93.1071 169.038 93.0378C169.183 93.0104 170.978 92.9841 175.427 92.9389C183.223 92.8791 209.923 92.0137 187.883 92.2026C178.948 91.8436 206.224 91.6137 189.833 91.6646C188.675 91.6533 187.177 91.6472 185.561 91.6504C192.156 91.3837 197.444 90.5028 186.642 90.631C190.702 90.1707 180.817 90.1696 177.34 90.185C177.851 90.183 178.639 90.1748 182.4 90.1356C194.306 90.1855 185.325 89.1298 186.357 88.7551C179.641 89.0483 174.963 88.132 183.444 88.0969C172.723 88.0142 197.08 87.5487 197.361 87.389C197.224 87.348 195.195 87.3267 190.059 87.3464C176.379 87.4916 197.757 86.9026 185.306 86.7661C176.917 86.6102 158.057 87.5002 177.449 86.4829C185.005 86.0648 200.34 85.7429 184.05 85.775C182.23 85.7648 181.326 85.7576 180.224 85.7537C185.435 85.7365 194.269 85.6189 191.249 85.0528C188.307 84.6954 179.548 84.5842 173.017 84.5502C175.434 84.5138 178.61 84.4519 181.743 84.3946C179.161 84.3058 192.535 82.6898 178.778 83.1487C175.265 83.175 171.755 83.1927 168.242 83.2123C180.756 78.8916 193.301 74.6353 205.809 70.3005C198.848 72.6133 183.796 75.5609 183.94 75.3124C189.509 74.2534 193.969 70.472 189.037 71.9215C191.137 70.904 193.143 69.7424 191.87 69.7625ZM187.891 63.2996C187.587 63.3342 187.056 63.5873 186.525 63.9082C187.179 63.7352 187.734 63.5861 188.139 63.4908C188.16 63.3741 188.112 63.3132 188.007 63.2996C187.974 63.2953 187.934 63.2948 187.891 63.2996ZM179.026 63.2146C178.88 63.3335 178.728 63.525 178.34 63.9155C173.831 65.7195 157.09 71.391 170.294 66.485C171.911 66.1504 176.077 64.5792 179.026 63.2146ZM22.8726 57.6789C21.2928 57.1327 19.3636 56.5383 16.9581 55.9022C18.9297 56.4937 20.9012 57.0869 22.8726 57.6789ZM35.9499 53.2829C36.0462 53.371 37.8531 54.6502 42.6455 58.0329C42.0055 58.5088 44.0159 60.2873 46.5957 62.2023C40.044 57.7355 33.5987 53.0374 43.7481 60.6592C31.4528 52.6697 42.627 59.8947 53.2912 67.0868C45.9891 65.411 38.8442 63.4559 32.2916 60.5034C29.1534 59.5601 26.0112 58.6216 22.8726 57.6789C27.0489 59.1229 28.7037 60.2155 29.6413 60.7653C44.9225 65.7361 20.1162 58.4615 37.1255 63.9082C36.3329 63.9519 11.9161 56.9782 27.1368 61.9474C7.4295 56.2264 40.9216 66.4528 26.2458 62.2236C44.8274 67.8583 13.4346 59.8098 32.8174 66.4356C33.6793 66.7409 34.6471 67.0728 35.6651 67.4193C24.0441 63.9384 16.784 61.7986 22.1788 63.5261C26.9872 65.4595 33.2728 67.3976 36.0084 68.2122C34.7331 67.8515 32.5421 67.2467 28.5315 66.1524C10.7121 64.9099 49.957 74.8419 24.7271 68.1628C9.50267 64.1764 38.8328 73.2249 21.4195 68.1062C30.1817 71.1029 43.143 74.8903 27.2756 70.1732C14.9515 67.2719 28.7541 72.3238 27.2973 71.681C28.1293 71.9519 28.8251 72.1786 29.5245 72.4029C27.1323 71.7829 24.4133 71.1649 21.9599 70.8032C27.1641 73.5242 37.0682 75.8125 23.8656 72.6011C33.5889 75.8046 21.5847 72.8883 27.4653 74.7037C22.9354 73.5099 23.5355 73.9503 34.1975 77.1812C56.8701 84.1825 12.6042 71.3769 33.8908 78.2218C29.988 77.5366 16.6698 73.0731 28.1225 77.4643C8.64027 72.2819 52.0127 84.9998 31.0432 79.0287C22.5548 77.4645 32.7337 80.6209 43.4194 83.7433C31.3774 83.7606 19.3033 83.0864 7.23975 83.4955C20.7893 84.1046 26.2449 84.3746 22.5513 85.0246C24.6752 85.1491 26.3753 85.2343 27.7793 85.2937C25.0521 85.3607 21.4613 85.5691 17.6958 86.1005C27.2106 86.0956 47.8803 86.1184 27.2244 86.4829C37.1663 86.6913 56.8245 87.2363 34.6501 86.6952C30.0163 86.9113 49.16 88.4303 34.1391 87.8844C35.8257 88.6872 41.5569 88.964 48.9394 89.017C50.5365 81.0268 53.8555 73.6322 58.512 67.2141C57.5246 66.6032 55.5537 65.3335 52.2106 63.1438C40.9015 55.8087 29.9392 48.3991 46.9681 60.2628C50.7806 63.4996 35.6611 53.0188 35.9499 53.2829ZM60.9069 38.1627C61.4341 38.9234 61.9871 39.7119 62.4914 40.442C62.0056 39.8046 61.463 38.9884 60.9069 38.1627ZM66.7263 37.844C67.821 39.3707 68.9168 40.8982 69.9975 42.4311C68.853 40.9317 67.7932 39.3864 66.7263 37.844ZM98.5983 18.2921C98.3212 17.2444 98.0142 16.1985 97.6854 15.2057C98.0301 16.4726 98.3273 17.4736 98.5983 18.2921ZM89.6755 19.3257C89.0893 15.1554 88.4797 15.395 89.6755 19.3257V19.3257ZM90.1793 25.0737C89.7478 22.9256 89.4075 21.4201 90.2013 25.4844C90.195 25.3426 90.1863 25.2121 90.1793 25.0737ZM72.6992 37.6388C72.2578 37.0442 71.815 36.4531 71.3702 35.8619C68.5579 32.2235 72.0057 36.973 73.1154 38.3396C72.9866 38.1111 72.8399 37.875 72.6992 37.6388ZM57.8987 33.8375C57.0521 32.6269 56.2124 31.4182 55.3796 30.2414C54.8651 29.6472 56.8968 32.494 57.8987 33.8375ZM41.8205 35.8902C40.4714 34.8655 39.0064 33.7985 37.4395 32.7332C38.8755 33.8083 40.341 34.8575 41.8205 35.8902ZM171.396 39.9536C176.712 36.1054 179.703 33.8279 170.834 39.904C170.414 40.2531 170.83 40.1371 171.396 39.9536ZM166.869 37.5751C166.755 37.7253 165.728 38.5433 163.437 40.2791C171.787 34.1168 170.33 35.014 166.869 37.5751ZM160.232 33.3774C161.339 31.9482 162.85 29.7113 165.117 25.9375C163.506 28.424 161.873 30.9042 160.232 33.3774ZM146.651 31.2891C146.623 31.3382 146.585 31.4087 146.556 31.459C149.594 27.3902 147.987 29.9345 145.994 32.9597C146.164 32.7572 146.327 32.5639 146.49 32.3651C148.776 29.0093 148.697 29.254 147.907 30.5812C151.872 25.3936 152.594 22.7505 146.651 31.2891ZM144.519 32.0819C144.626 31.9218 144.729 31.7723 144.876 31.5439C144.461 32.1313 144.315 32.3345 144.022 32.7472C144.19 32.5202 144.358 32.2946 144.519 32.0819ZM128.784 30.3759C128.66 30.6333 128.329 31.9691 128.784 30.3759V30.3759ZM127.484 25.5623C127.309 26.7661 127.082 28.1957 126.783 29.9299C128.159 22.8544 128.038 22.9602 127.484 25.5623ZM100.219 14.9934C100.63 20.0318 100.365 23.6337 98.5986 18.2921C100.537 25.6267 101.039 32.8344 97.8392 19.2408C96.0022 17.0036 95.8807 20.3638 96.5906 26.072C95.9207 23.588 95.2043 21.2482 94.422 19.1204C98.9537 35.7004 90.5562 13.2769 92.1512 25.9021C90.9411 23.1281 90.1625 20.9256 89.6758 19.3257C89.8735 20.731 90.0585 22.6391 90.1796 25.0737C90.8719 28.5185 91.8049 33.6268 88.6975 20.1609C84.7207 8.68725 90.6908 35.0111 86.0834 17.8463C85.1986 18.7865 85.3352 20.9974 85.5357 22.3484C85.3123 21.3875 84.9025 19.7486 84.1485 17.0675C85.1717 37.8714 79.4383 6.38486 81.622 28.0115C80.5271 22.7231 81.1213 30.6013 82.1769 39.2953C77.095 31.6733 72.0324 24.0437 66.2084 16.7986C68.7615 20.2823 71.6936 23.6462 73.4881 27.4595C72.8311 27.5141 77.6377 33.5575 74.8024 30.206C73.8108 28.9274 70.1167 24.0825 72.6264 27.7001C73.9939 29.7349 76.6816 33.2014 77.2265 34.3825C75.9538 32.7907 73.489 29.4683 73.0864 28.9319C73.8629 29.965 76.6917 34.1358 74.4811 31.2325C73.6252 30.1143 70.284 25.6645 72.7944 29.1158C75.19 32.5528 77.9378 35.8508 79.9865 39.4369C76.1538 34.9574 73.3296 29.9109 69.2676 25.5623C70.0566 27.6595 73.2371 31.6844 73.6268 32.4287C71.2071 29.2055 68.8987 25.9094 66.2813 22.7944C70.1335 28.6012 74.4694 34.1863 78.3509 39.9819C75.3498 36.105 72.8268 31.9494 69.6181 28.1957C70.4003 29.5433 73.9133 34.0941 73.1813 33.2852C70.2202 30.014 67.618 26.5355 64.9233 23.113C67.1201 26.96 70.1667 30.5103 72.0934 34.4321C71.1345 33.7498 69.1052 31.6671 70.6842 33.9437C71.6675 35.3719 72.656 36.799 73.6414 38.2263C71.4398 35.195 69.2234 32.1732 66.9895 29.1584C68.847 31.8896 71.1214 34.9907 72.6995 37.6388C74.4802 40.0381 76.2008 42.4764 77.577 45.0504C73.8126 40.7104 71.5539 35.4102 66.8801 31.6359C67.6659 33.8413 70.6335 36.5945 71.2464 38.0635C70.0529 36.9193 68.6017 34.583 67.4567 34.1277C69.2514 37.195 67.1551 33.7965 66.1352 32.6765C67.0103 34.0789 69.0933 37.89 66.6172 34.6373C64.1812 31.4345 67.7173 36.4744 68.5449 37.6531C71.4018 41.7115 74.3369 45.7336 77.2485 49.7648C70.9188 41.354 64.612 32.9239 58.2057 24.557C59.3156 26.3719 62.7636 31.1133 62.594 30.9989C61.2678 29.3851 64.324 33.6125 64.9086 34.4674C65.7165 35.5672 67.6872 38.4622 65.6751 35.7416C63.4517 32.8045 61.34 29.8072 59.06 26.9002C60.7077 29.3711 62.4164 31.816 64.1492 34.2479C63.5426 33.4458 62.9178 32.6518 62.2507 31.8837C62.3147 32.2377 62.694 32.9332 63.1926 33.7242C61.8337 31.8776 60.374 30.084 58.6803 28.4505C59.4021 30.4374 63.4875 34.7329 63.054 35.055C61.9316 33.6916 60.2156 31.3061 59.6002 30.5669C63.0056 35.374 66.5869 40.1097 69.6912 45.0574C66.2757 40.6524 63.3935 35.9056 59.5857 31.7421C60.8507 33.8075 62.5965 36.158 63.9519 38.0705C62.6736 36.3235 60.7343 33.9867 62.6816 37.1927C63.4562 38.5514 65.5448 41.6802 63.3461 38.5308C62.3956 37.2951 58.9726 32.5628 59.3812 33.3135C60.0916 34.3621 62.8556 38.0657 60.7175 35.3382C59.9875 34.3089 57.7036 31.6812 58.1107 32.4996C57.2335 31.3119 56.318 30.1442 55.3287 29.0239C55.883 30.5112 58.6294 34.163 58.3006 34.3684C58.2151 34.2579 58.0324 34.0166 57.899 33.8375C58.591 34.8271 59.2627 35.788 59.9434 36.768C59.1997 35.7405 58.4608 34.8638 57.8113 34.5383C60.8679 39.3522 64.4001 43.9425 67.7197 48.6322C63.9326 43.771 60.5271 38.6819 56.2634 34.0923C58.2158 37.4236 61.1663 40.3181 62.8568 43.7549C60.3691 40.7804 58.3099 37.5694 55.8617 34.5737C56.7211 36.5424 60.242 40.4273 59.7902 41.1712C58.0015 39.3819 56.4811 37.4127 54.971 35.4585C58.1431 39.846 61.3054 44.2372 64.4193 48.6535C61.1112 44.2974 58.2609 39.6976 54.7446 35.4585C56.4166 38.8901 58.8908 42.0331 61.1117 45.2416C58.7039 41.9381 56.4706 38.5161 53.7079 35.4088C57.5134 41.6401 61.7024 47.7043 66.0112 53.7077C60.671 50.4659 55.6842 46.902 51.605 42.5161C48.339 40.3143 45.041 38.1387 41.8208 35.8902C46.7294 39.6199 50.0482 42.786 50.6265 43.1956C63.4309 52.2165 61.2248 51.0639 49.9327 43.1815C52.9214 45.7544 60.0187 50.2469 55.6428 47.5702C65.317 53.9992 68.5238 57.6816 56.9643 48.8657C50.7914 43.8881 39.919 38.1303 46.8515 43.033C44.1725 41.236 43.0232 40.4993 42.9306 40.4846C42.9883 40.6465 49.4631 45.2246 54.8761 49.0216C40.9677 39.9604 68.2713 59.4224 49.5458 46.3176C40.6364 40.2225 40.5695 40.6044 48.9325 46.3599C46.3938 45.7132 54.7615 51.9822 62.9445 57.8064C52.2525 50.4065 41.9157 43.2613 40.8714 42.5586C41.1644 42.7699 42.804 43.9171 46.3111 46.3599C49.7802 48.894 64.8027 59.6997 52.5249 51.2795C62.3605 58.4458 58.7291 55.7747 47.3773 48.2853C50.715 50.6331 58.6955 56.6846 48.9397 49.97C53.7016 53.5509 47.9467 49.3165 57.1688 56.1782C33.8817 40.6198 58.966 57.5151 54.3065 55.0245C29.2011 38.6037 79.9358 73.9729 54.1897 56.8577C47.9666 52.7968 36.3117 44.8402 48.5967 53.4741C28.1081 39.8668 60.7577 62.4329 56.8987 59.8875C53.5329 57.4723 32.8912 43.3098 45.4788 52.2778C34.3611 44.6553 31.8779 43.1866 45.0408 52.1999C50.2926 56.4262 33.7585 45.0635 46.7492 54.274C41.0423 50.4718 43.4178 52.2572 47.056 54.8756C39.4471 49.8438 37.6984 49.8282 47.0195 56.0155C37.5341 49.6438 58.5085 64.5241 42.7771 53.4671C53.9049 61.3764 58.6223 65.3775 51.1522 59.7885C44.5858 55.3062 26.38 43.0252 42.361 54.3449C63.6227 68.7246 15.8766 36.6321 40.8642 54.2527C29.6909 47.1527 54.3103 63.9533 58.5926 67.1079C69.2162 52.537 86.7304 43.0187 106.536 43.0187C131.381 43.0187 152.612 57.9955 161.167 79.1419C172.221 75.3891 183.249 71.5759 194.316 67.8513C189.894 69.1228 167.608 75.8359 181.662 70.8172C188.511 65.6255 167.102 72.9402 179.114 68.7858C183.084 67.5077 202.771 60.7492 188.935 65.1897C183.168 66.7498 184.823 64.9405 186.511 63.9155C181.932 65.1295 172.891 67.7141 181.823 64.3402C185.201 62.9573 184.669 62.7856 189.22 59.9158C181.933 62.5523 180.129 62.8227 179.443 63.0164C182.66 61.4883 184.062 60.3267 177.99 61.7069C189.69 57.6528 170.464 62.7912 172.747 61.7918C177.925 60.5822 183.098 57.9072 174.93 60.5247C170.265 62.3582 165.55 64.1019 160.802 65.7843C163.58 63.8706 166.503 62.2052 169.658 60.9494C177.578 55.4786 185.378 49.8638 192.586 43.7406C184.963 49.1847 160.305 68.149 180.195 52.4688C167.786 61.7212 178.155 53.2378 178.231 53.1627C168.392 60.9401 157.133 68.1866 173.441 56.4402C185.022 47.7854 182.496 49.3854 172.813 56.7374C158.292 67.6771 186.465 46.0133 168.906 59.0169C164.312 62.4223 159.189 66.1248 158.421 66.6265C158.402 66.6335 158.382 66.641 158.363 66.6478C158.609 66.4281 160.675 64.876 165.752 61.1263C173.881 55.4632 197.393 36.6916 178.055 51.3151C154.134 68.5971 198.945 35.2457 179.45 49.3684C176.028 51.8869 171.016 55.4261 166.417 58.7054C175.694 51.8484 184.985 44.8354 174.536 52.5114C175.883 51.4707 177.242 50.4208 178.486 49.432C177.102 50.409 175.978 51.2164 175.047 51.8955C176.912 50.3748 179.442 48.2231 182.356 45.5105C179.721 47.2332 159.021 62.0016 172.148 51.6832C171.678 51.9734 171.207 52.2613 170.739 52.5538C173.737 50.2629 176.701 47.9418 179.618 45.5741C177.234 47.3507 171.383 51.6941 166.884 55.0102C165.97 55.6014 165.059 56.1953 164.153 56.7941C164.817 56.2832 165.582 55.6938 166.504 54.9889C165.472 55.7794 164.734 56.341 164.007 56.8933C163.5 57.2283 162.993 57.5613 162.488 57.8983C164.035 56.6767 166.453 54.8036 168.848 52.9928C162.773 58.3632 176.371 47.2791 164.533 56.0225C138.706 74.4645 187.963 38.3396 167.183 53.3962C168.962 51.3729 171.453 49.8024 163.175 55.8739C158.109 59.0563 184.371 39.0498 165.46 53.0141C169.923 49.3949 175.765 44.5119 165.496 51.9664C156.697 58.6164 150.957 62.3826 162.722 53.3609C172.378 46.4576 184.721 35.9233 169.731 47.4003C159.692 54.9816 157.655 56.1376 168.979 47.5775C178.87 40.4662 177.767 40.7664 169.994 46.3669C176.124 41.7187 182.85 37.579 172.681 43.5283C185.51 34.1958 167.201 46.6671 171.513 43.7053C180.536 36.963 164.971 47.9689 163.686 48.8304C164.135 48.4967 165.731 47.3403 169.111 44.9158C178.279 38.2893 163.27 48.8938 174.55 40.1658C164.065 47.3437 175.295 39.6856 164.832 47.3437C150.037 58.0368 174.072 40.1484 165.226 46.1687C165.483 45.9762 165.506 45.9583 165.745 45.7794C167.292 44.6936 168.717 43.6122 169.899 42.6576C171.472 41.4654 171.631 41.3214 170.82 41.9001C172.519 40.4716 173.443 39.5101 172.959 39.6702C172.901 39.4444 172.049 39.7423 171.396 39.9534C163.568 45.6201 150.752 54.6591 162.846 45.7794C163.182 45.5995 163.559 45.3501 164.073 44.9016C172.748 38.8088 174.875 36.3573 166.657 42.2752C167.312 41.5535 168.047 40.7086 168.965 39.6419C161.899 45.264 146.153 55.8988 162.422 44.0098C173.501 36.3317 173.6 34.7793 162.802 43.1956C148.773 53.1767 163.992 41.5624 164.087 41.2559C166.35 39.6068 167.462 38.7856 167.738 38.5732C167.394 38.8083 165.768 39.9677 163.569 41.5674C163.897 41.3445 164.066 41.2443 164.08 41.2559C162.87 42.1379 161.465 43.1614 159.546 44.5548C159.49 44.5795 159.443 44.5962 159.392 44.6184C160.886 43.5207 162.3 42.4909 163.569 41.5674C162.952 41.9862 161.744 42.8504 159.641 44.3778C159.488 44.4857 159.314 44.6073 159.159 44.7176C155.622 46.1592 162.702 40.6585 166.869 37.5749C167.329 36.9698 153.165 47.0442 146.629 51.7326C149.75 46.3499 153.275 41.2197 157.932 36.8316C158.701 35.6825 159.468 34.529 160.232 33.3772C157.194 37.2992 157.189 35.1142 152.967 41.5956C158.323 32.9171 154.785 36.6165 152.134 40.357C153.982 37.3549 156.002 34.2747 156.099 34.078C155.975 34.2307 154.984 35.6669 152.573 39.1818C161.182 25.6461 144.263 50.7321 148.739 43.9035C151.646 39.3561 158.117 28.6958 151.076 39.2951C154.355 34.1646 160.127 24.7722 152.295 35.9822C162.022 21.4829 145.412 45.2866 151.083 35.6071C150.07 36.9721 148.814 38.7064 147.432 40.6472C152.155 33.5967 154.679 29.734 152.375 33.1507C150.044 36.5528 147.624 39.7665 147.323 40.003C148.286 38.5881 149.319 37.0344 150.389 35.4088C147.944 38.8649 147.148 40.1122 147.315 40.003C142.384 47.2438 139.662 50.603 147.585 38.4173C147.728 37.5665 147.76 37.0974 147.732 36.867C148.125 36.1842 148.747 35.005 149.718 32.9878C148.443 34.2948 146.386 37.2879 144.57 40.0879C145.511 38.5292 146.582 36.7399 147.965 34.4248C146.074 34.7522 130.458 59.977 142.306 41.0506C146.917 33.9736 156.699 18.1926 146.169 33.7949C143.733 37.3219 146.652 32.689 147.907 30.5809C147.472 31.1498 146.998 31.7473 146.49 32.3649C145.894 33.2404 145.19 34.2832 144.234 35.7061C143.459 36.833 143.021 37.4573 142.839 37.7164C143.159 37.2279 144.63 35.0296 145.994 32.9594C145.691 33.3194 145.383 33.6821 145.059 34.0497C145.65 33.0388 146.115 32.2298 146.556 31.4587C146.451 31.5989 146.387 31.678 146.271 31.8341C146.409 31.6338 146.519 31.478 146.651 31.2888C150.386 24.7441 148.683 26.9018 143.65 34.2833C146.518 29.6346 145.716 30.4992 144.519 32.0817C144.247 32.4849 144.073 32.7255 144.008 32.7755C144.006 32.7785 144.002 32.78 144 32.7825C143.574 33.0412 147.848 25.2108 142.518 33.8019C147.939 24.7423 135.827 42.8486 143.212 31.3951C145.126 28.9015 143.487 30.3327 142.912 30.7015C147.475 23.5852 150.083 18.7689 141.605 30.8784C139.349 34.1111 138.308 35.6073 137.984 36.0742C138.754 34.9393 142.671 29.16 142.299 29.0662C139.203 33.398 134.018 41.0292 133.763 41.2915C133.804 41.1734 135.075 39.1993 138.429 34.1063C144.246 24.5009 139.709 30.3291 137.166 33.9578C141.028 27.7077 145.023 22.8311 137.392 32.4144C139.476 27.7159 133.513 36.7734 131.522 39.8474C132.038 39.0405 132.878 37.7246 134.136 35.7416C139.867 26.9557 141.246 25.6396 134.187 35.0125C138.881 26.6628 132.706 36.404 127.258 44.6963C127.989 38.8665 129.105 33.1624 131.405 27.8699C132.365 22.9806 133.283 18.0834 134.143 13.1812C130.013 32.2629 134.102 12.721 130.368 26.4469C126.375 46.1923 133.182 9.85611 129.054 29.4273C128.927 29.8856 128.86 30.1093 128.784 30.3757C128.886 30.1623 128.824 30.7728 127.981 34.6797C125.713 44.8769 132.798 4.4968 128.864 24.4861C128.142 28.1114 127.834 29.4792 127.776 29.5263C127.659 29.1503 130.897 10.6652 128.221 24.0331C126.851 30.2541 122.808 50.8378 125.9 33.9081C126.398 30.9162 127.063 27.5383 127.484 25.5621C129.042 14.851 125.977 24.0263 123.395 33.7736C124.232 29.4617 125.026 25.1394 125.754 20.8121C123.54 28.1409 119.865 48.5255 123.037 29.4413C124.923 20.8973 122.073 28.9002 123.672 18.5469C121.15 33.6542 123.919 15.2789 120.774 31.8128C120.644 31.8896 121.604 22.0383 119.408 32.8179C113.771 59.2081 125.909 -4.50915 119.686 25.6117C117.979 33.0231 122.372 9.18197 118.824 26.6947C118.429 28.6589 118.243 29.5693 118.021 30.6802C118.947 25.9604 120.421 18.2463 119.138 23.2969C121.027 14.6475 116.264 25.4658 117.349 25.3852C116.552 28.909 115.552 33.8003 115.042 36.3363C115.26 35.2501 115.529 33.91 116.174 30.6448C117.364 25.7755 117.402 21.0783 116.707 23.8491C117.931 16.3738 112.044 43.6593 115.648 25.6047C116.978 18.2728 113.448 35.2974 115.728 23.1836C115.879 21.3811 115.792 21.177 115.604 21.7678C117.465 12.8655 116.321 14.0685 115.027 20.7981C116.623 11.9816 109.311 48.7701 113.866 25.8948C114.743 17.4732 113.516 22.8411 112.304 29.1369C114.156 15.0351 111.171 33.2924 110.442 32.2942C111.766 25.2925 111.702 22.0428 109.974 31.02C110.58 26.014 110.423 25.7535 109.938 27.6858C111.265 20.8395 112.091 16.3924 109.127 29.3493C110.368 19.6195 108.499 27.235 106.411 36.8813C104.154 29.6196 101.861 22.3591 100.219 14.9934ZM98.343 4C98.7533 7.70002 99.4089 11.358 100.219 14.9934C99.8872 10.921 99.1152 5.93112 98.343 4Z" fill="#FFD652"/>
<path d="M71.9869 90.4356C70.9437 91.7277 68.7702 92.7036 66.4587 92.439C66.8692 92.1273 68.0482 92.4784 67.9272 91.7186C65.8687 91.483 65.178 92.014 63.6672 92.1001C63.7567 93.1301 63.3385 94.1827 62.7375 94.7398C62.1356 95.2972 61.3522 95.3638 60.6746 94.414C59.2021 95.4223 57.9773 95.5641 56.537 95.3695C57.2747 95.0764 57.9235 94.9749 58.3042 94.7878C60.3526 93.7963 59.7302 93.7779 58.4222 94.0303C57.1158 94.2829 55.1405 94.8481 54.4975 94.9654C53.236 97.5058 50.9616 98.1961 48.7772 98.2359C49.687 97.8674 50.6032 97.5131 51.5182 97.164C50.4415 96.8068 49.1994 96.9833 48.1842 97.3874C47.1678 97.7899 46.3841 98.4183 46.201 98.9418C46.7982 98.6281 47.2835 98.6743 47.6498 99.0756C43.27 100.738 39.3442 102.669 35.572 104.955C31.8015 107.244 28.1818 109.897 24.4508 113.124C24.6793 113.77 25.0497 113.524 25.3485 113.738C25.2959 114.005 24.6436 115.167 24.2309 114.493C24.033 114.088 24.4861 113.949 24.3775 113.58C22.9512 114.374 23.0068 115.277 21.6921 115.438C21.9019 116.754 22.5398 115.088 22.8246 115.877C22.1002 116.403 21.9872 117.166 20.9974 117.599C20.2518 116.185 19.2168 118.53 17.1977 119.625C16.0867 119.704 14.5927 120.803 13.1296 122.242C11.6632 123.677 10.2341 125.453 9.17311 126.802C6.64292 130.007 4.08649 133.526 3 137.409C3.45097 137.215 3.21382 135.801 3.94747 136.419C3.14372 137.584 4.46058 139.137 4.60335 140.459C5.08887 139.676 5.59429 139.557 6.10622 139.826C5.86015 139.243 5.3854 138.619 5.49918 138.103C6.35317 138.978 5.98587 137.263 6.83706 138.141C6.26042 138.698 6.45692 139.9 7.24295 140.059C7.78942 139.403 9.48765 138.53 10.6232 138.994C11.0564 137.854 11.9099 136.17 12.9125 134.882C13.9123 133.593 15.0537 132.704 15.9993 133.115C15.8206 132.754 15.4643 132.337 15.6661 132.089C17.1816 132.242 18.3557 131.21 19.6051 130.186C20.8504 129.164 22.1741 128.156 23.8734 128.411C23.2863 126.953 23.5627 129.292 22.9734 127.836C23.8235 126.618 23.9396 128.104 24.2781 128.105C24.0648 127.11 24.8646 126.409 25.809 125.963C26.7525 125.513 27.8397 125.324 28.197 125.268C27.1075 126.494 25.1504 127.688 25.0945 129.587C24.6681 128.03 25.0212 129.122 24.726 129.447C24.0001 130.243 22.5676 131.352 21.1226 132.521C19.6777 133.689 18.2242 134.916 17.4122 135.848C18.7983 135.501 19.9929 134.177 21.1855 132.949C22.3743 131.72 23.5629 130.591 24.8172 130.641C24.7207 131.297 23.9272 131.686 24.1186 132.452C25.9591 131.376 27.9192 129.845 30.0211 128.372C32.12 126.898 34.3584 125.483 36.6573 124.602C36.2482 125.297 35.1804 125.814 34.0523 126.506C32.9252 127.197 31.7356 128.063 31.1123 129.393C31.6126 129.65 32.2039 129.093 32.7913 128.63C33.3782 128.167 33.9633 127.799 34.4126 128.412C34.694 130.268 32.8978 129.567 32.9822 130.979C34.09 129.956 36.1251 129.44 36.6828 128.17C35.7608 127.51 35.6052 129.176 34.7033 129.023C34.4582 128.431 34.351 127.906 34.5302 127.525C35.8456 127.653 36.176 125.703 37.2924 126.596C37.6973 127.668 35.9688 125.707 36.8134 127.289C36.605 128.384 38.3336 127.077 38.7492 128.099C37.0426 128.877 36.5692 130.098 35.4931 130.127C36.1921 130.703 37.031 130.121 37.8966 129.461C38.761 128.801 39.6516 128.056 40.389 128.306C40.5669 128.724 40.1593 128.81 40.2575 129.179C41.7473 128.993 42.5655 128.29 43.441 127.615C44.3146 126.944 45.2434 126.297 46.9033 126.299C46.6311 127.113 44.2854 127.525 45.5481 128.553C46.1453 129.43 45.6091 127.682 45.9105 127.59C46.5654 129.507 46.7554 127.05 47.1921 127.694C47.3998 128.973 46.4185 129.467 47.1687 130.786C46.7365 131.398 45.8752 129.276 45.9068 130.688C46.5365 131.098 46.0734 131.306 45.55 131.582C45.0245 131.856 44.4392 132.204 44.8257 132.84C45.4885 132.267 46.4628 131.58 47.5636 131.121C48.6636 130.663 49.8871 130.436 51.0168 130.765C49.0365 131.583 46.729 132.755 44.4051 134.098C42.0802 135.441 39.7416 136.959 37.6658 138.404C39.9173 137.268 41.7377 136.315 43.5536 135.345C45.3703 134.38 47.1846 133.399 49.4496 132.309C50.0868 133.032 51.0747 132.475 52.2322 131.827C53.3879 131.179 54.7199 130.443 55.9599 130.759C55.9985 131.862 54.6169 130.366 55.1758 131.862C55.609 132.585 56.0183 130.741 56.6948 131.571C56.6501 130.609 55.5963 130.427 56.4623 130.17C56.8088 130.281 56.6562 131.088 57.2102 131.726C58.5967 131.907 58.0869 129.436 58.9257 130.64C58.5708 129.473 58.2474 129.798 57.9331 130.21C57.6193 130.625 57.3151 131.121 56.977 130.318C56.977 129.056 58.0292 129.887 58.9238 129.148C59.2222 130.043 58.7869 129.949 59.3318 130.471C60.7368 130.616 61.1989 129.656 62.4095 129.29C61.6751 127.664 60.4748 128.929 60.3587 130.067C60.1683 128.876 59.4348 129.82 59.1306 129.067C60.7047 128.306 60.7846 128.121 62.2394 127.883L62.6167 129.217C63.3918 128.803 65.6274 128.577 66.2374 128.334C67.2648 127.317 69.0836 126.957 70.9231 126.625C72.7648 126.288 74.6246 125.978 75.8074 124.935C75.4672 124.143 74.656 126.024 74.3111 124.22C79.8139 123.106 85.2718 122.327 91.2718 121.682L91.1283 121.27C93.1641 120.914 95.1065 120.508 96.8797 119.96C96.9169 120.604 97.5278 120.197 97.6496 120.685C98.2421 119.338 100.529 119.879 101.274 118.424C101.615 118.637 102.068 118.656 102.224 119.184C101.603 120.254 100.741 118.688 100.498 120.47C103.447 119.98 105.738 119.718 108.17 119.515C110.604 119.32 113.176 119.185 116.739 119.106C117.347 118.725 117.793 117.966 118.427 117.633C119.895 118.362 121.599 118.002 124.454 118.763C124.861 120.397 126.691 120.567 128.012 120.589C130.7 120.625 133.729 120.491 136.83 120.695C139.928 120.896 143.094 121.439 145.991 122.786C147.032 121.134 148.63 122.233 148.947 123.436C153.396 124.661 158.171 125.106 162.835 125.877C167.491 126.641 172.027 127.732 175.794 130.096C172.769 129.759 170.359 127.935 167.555 128.001C167.979 129.065 169.51 129.143 170.849 129.478C172.186 129.811 173.32 130.398 172.905 132.378C172.609 131.915 171.721 132.381 172.147 132.748C172.688 132.137 173.567 133.127 174.13 132.609C173.797 132.393 173.571 132.089 173.583 131.597C175.291 132.132 177.127 132.229 178.93 132.503C180.732 132.777 182.503 133.226 184.03 134.446C183.086 135.338 181.546 134.063 181.583 135.74C182.64 134.941 183.246 136.634 184.768 134.861C185.21 135.445 187.026 135.698 187.825 135.083C188.285 135.548 190.074 135.821 189.071 136.561C191.234 137.726 193.173 137.721 195.375 138.472C195.195 138.965 194.913 139.52 195.361 139.622C196.941 138.446 198.004 140.417 199.874 140.975C199.655 141.474 199.302 140.815 199.072 141.227C199.969 142.163 199.883 141.36 200.374 140.911C199.853 142.214 200.966 142.533 201.46 141.636C201.176 141.262 200.272 142.049 200.867 140.848C204.37 142.369 207.261 143.995 211.588 146C210.425 144.944 208.8 144.072 207.527 143.272C206.255 142.47 205.331 141.733 205.575 140.895C205.102 140.688 203.987 140.528 202.793 140.144C201.597 139.76 200.321 139.152 199.513 138.011C200.38 138.014 200.775 139.271 201.743 138.305C200.163 137.37 198.008 136.659 197.314 135.445C199.213 135.608 202.085 137.81 203.793 138.503C201.649 136.522 199.146 134.879 197.322 134.287C198.427 132.175 195.361 133.002 197.01 131.006C196.466 130.053 196.41 132.298 195.95 131.893C196.103 131.411 196.472 130.799 196.254 130.546L195.641 132.082C195.616 130.849 194.514 130.902 193.76 130.94C194.792 128.328 194.471 128.885 193.503 130.409C192.558 129.342 190.582 129.545 189.325 127.966C189.739 126.919 190.14 128.478 190.286 126.617C189.632 126.844 189.569 127.258 189.446 125.762C187.872 126.851 186.455 124.903 186.248 124.359C185.335 124.231 183.401 123.639 181.42 122.839C179.438 122.036 177.409 121.024 176.319 119.96C176.493 119.962 176.708 120.139 176.811 119.829C174.081 118.751 170.94 118.353 167.843 117.773C164.741 117.191 161.68 116.427 158.988 114.542C158.895 115.193 158.181 115.272 157.485 115.41C158.168 113.407 154.996 114.739 154.849 113.693C156.549 112.985 158.513 113.637 160.377 114.217C162.245 114.794 164.017 115.296 165.433 114.261C163.941 113.98 161.866 113.542 159.734 113.008C157.603 112.47 155.413 111.84 153.685 111.111C160.166 112.014 166.296 113.522 172.545 115.476C178.794 117.439 185.166 119.844 192.186 122.772C193.038 123.536 194.923 123.96 193.078 122.907C187.908 119.669 181.72 117.164 175.56 115.048C169.396 112.919 163.263 111.184 158.072 109.134C159.946 109.266 161.763 109.968 163.432 110.474C165.102 110.978 166.626 111.283 167.972 110.605C167.853 111.128 167.639 111.732 168.11 111.764C168.685 111.487 168.075 110.859 168.581 110.874C168.276 112.412 169.174 111.38 169.52 112.382C169.69 111.908 169.782 111.142 170.084 111.163C169.469 113.165 171.798 112.266 172.192 111.743C171.484 113.243 174.753 113.939 174.702 112.535C172.102 111.22 167.838 110.354 164.12 108.984C163.676 108.692 163.651 109.842 163.259 109.722C164.096 107.599 160.927 109.647 161.27 107.836C165.671 108.575 170.723 109.887 175.863 111.593C181.004 113.294 186.23 115.388 191.017 117.557C191.291 117.161 191.371 115.803 191.784 116.098C192.318 116.38 194.459 117.956 195.478 117.834C194.09 117.025 192.698 116.23 191.3 115.452C190.981 115.947 191.413 117.08 190.735 117.021C190.836 116.634 191.088 116.145 190.872 115.965C189.866 117.874 188.329 115.759 188.06 115.179C189.155 113.737 190.156 117.073 191.098 115.334C188.122 114.144 184.574 112.615 182.04 111.293C181.457 112.476 183.136 111.527 182.635 113.078C181.072 111.912 180.127 112.852 179.004 111.274C179.509 110.176 180.622 111.548 181.434 111.725C182.069 111.329 180.017 110.786 179.508 110.403C177.36 109.658 174.29 109.045 172.487 107.474C175.687 107.795 179.182 109.019 182.55 110.414C185.922 111.806 189.168 113.365 191.953 114.3C191.648 114.095 191.242 113.959 191.576 113.34C193.936 114.587 196.431 116.047 198.743 117.556C201.056 119.064 203.183 120.619 204.828 122.015C205.143 122.15 205.505 122.591 205.741 122.215C199.45 116.684 192.548 112.779 185.597 109.663C178.634 106.541 171.616 104.197 164.825 101.646C161.761 100.492 158.424 99.8841 155.592 99.2202C153.562 98.742 151.055 99.4648 149.749 96.8698C154.094 97.4829 159.309 98.9964 164.632 100.813C169.959 102.621 175.386 104.729 180.291 106.339C183.725 107.457 188.316 109.638 192.611 112.09C196.91 114.532 200.914 117.243 203.304 119.117C206.351 121.516 203.079 117.952 202.411 117.019C202.767 116.338 203.402 117.255 203.784 116.711C201.99 116.07 201.884 114.469 200.224 113.767C199.663 115.208 202.305 114.782 201.419 116.407C199.94 114.798 196.714 114.274 197.107 111.549C195.784 111.182 194.735 110.289 193.628 109.564C192.523 108.84 191.362 108.286 189.846 108.628C189.956 107.505 190.432 108.029 190.693 107.579C189.168 107.166 189.691 104.946 188.124 105.841C188.467 106.185 189.515 106.063 188.941 107.018C185.81 105.037 183.609 104.136 180.065 104.009C179.562 102.361 176.957 102.261 175.972 100.98C174.229 101.581 172.954 100.521 171.733 99.5321C170.515 98.5456 169.355 97.6314 167.928 98.5603C164.566 96.2647 160.964 95.2637 157.376 94.4351C153.78 93.6042 150.196 92.9441 146.701 91.2805C146.303 91.7266 145.807 91.9148 145.229 91.9026C140.981 91.2891 136.735 90.5078 132.43 89.7832C128.126 89.0599 123.764 88.3964 119.317 88.0596C116.21 87.826 113.166 88.8742 110 89.2418C106.683 89.6244 103.095 88.7985 99.7305 89.1005C96.5098 89.3886 93.1403 89.6362 89.7687 89.9798C86.62 90.2981 83.4715 90.707 80.4548 91.2611L80.1968 90.5323C77.5341 90.9414 74.8747 91.3732 72.2351 91.8045C71.9395 90.7808 71.2612 91.7642 71.9867 90.4356H71.9869Z" fill="#89B554"/>
<path d="M293.765 116.817V114.982H292.129C291.821 114.987 291.543 114.927 291.295 114.802C291.047 114.678 290.916 114.456 290.902 114.14V109.38H294.916C296.653 109.384 298.036 109.017 299.064 108.28C300.092 107.543 300.619 106.414 300.643 104.894C300.631 103.48 300.105 102.378 299.064 101.588C298.024 100.797 296.538 100.395 294.609 100.382H284.586V102.217H286.223C286.526 102.211 286.783 102.271 286.993 102.396C287.203 102.521 287.313 102.742 287.322 103.059V114.14C287.313 114.456 287.203 114.678 286.993 114.802C286.783 114.927 286.526 114.987 286.223 114.982H284.586V116.817H293.765ZM290.902 102.217H293.228C294.545 102.21 295.491 102.421 296.067 102.852C296.642 103.282 296.923 103.971 296.91 104.919C296.907 105.863 296.594 106.54 295.97 106.948C295.347 107.356 294.433 107.556 293.228 107.546H290.902V102.217Z" fill="#89B554"/>
<path d="M312.975 109.702L315.02 103.729H315.071L317.296 109.702L312.975 109.702V109.702ZM314.099 116.817V114.983H312.105C311.859 114.985 311.662 114.955 311.514 114.889C311.366 114.824 311.291 114.706 311.287 114.536C311.288 114.426 311.299 114.33 311.319 114.248C311.339 114.166 311.363 114.088 311.389 114.016L312.233 111.537H318.037L318.881 114.016C318.908 114.091 318.931 114.181 318.951 114.285C318.971 114.389 318.982 114.498 318.983 114.61C318.987 114.734 318.928 114.827 318.807 114.889C318.686 114.952 318.481 114.983 318.19 114.983H316.171V116.817H325.068V114.983C324.392 114.999 323.833 114.922 323.39 114.75C322.948 114.578 322.612 114.209 322.384 113.644L317.27 100.382H313.69L308.807 113.644C308.59 114.209 308.257 114.578 307.81 114.75C307.362 114.922 306.8 114.999 306.122 114.983V116.817H314.099Z" fill="#89B554"/>
<path d="M339.531 116.817V114.982H338.048C337.615 114.982 337.298 114.878 337.095 114.672C336.893 114.467 336.793 114.165 336.795 113.767V103.406C336.811 102.945 336.977 102.628 337.294 102.458C337.61 102.288 337.981 102.207 338.406 102.217H339.531V100.382H330.48V102.217H331.912C332.402 102.224 332.744 102.333 332.938 102.542C333.131 102.751 333.224 103.014 333.216 103.332V114.09C333.22 114.409 333.109 114.638 332.88 114.777C332.652 114.917 332.278 114.985 331.758 114.982H330.48V116.817H339.531Z" fill="#89B554"/>
<path d="M358.86 116.817H362.644V103.084C362.64 102.831 362.738 102.625 362.938 102.464C363.139 102.305 363.467 102.222 363.923 102.217H365.431V100.382H357.096V102.217H358.656C359.114 102.219 359.45 102.32 359.666 102.52C359.881 102.72 359.987 103.008 359.985 103.381V112.206H359.934L352.494 100.382H344.951V102.217H346.741C347.132 102.213 347.405 102.282 347.562 102.421C347.72 102.56 347.795 102.79 347.789 103.109V113.991C347.795 114.292 347.72 114.532 347.562 114.709C347.405 114.887 347.132 114.978 346.741 114.982H344.951V116.817H353.414V114.982H351.497C351.162 114.978 350.904 114.887 350.723 114.709C350.542 114.532 350.45 114.292 350.448 113.991V103.505H350.5L358.86 116.817Z" fill="#89B554"/>
<path d="M370.86 100.382V107.149H372.753V106.034C372.752 104.725 373.105 103.761 373.81 103.14C374.516 102.519 375.578 102.211 376.997 102.217V114.09C377.003 114.409 376.927 114.638 376.77 114.778C376.613 114.917 376.339 114.985 375.949 114.982H374.006V116.817H383.568V114.982H381.625C381.234 114.985 380.96 114.917 380.803 114.778C380.646 114.638 380.571 114.409 380.577 114.09V102.217C381.995 102.211 383.057 102.519 383.763 103.14C384.468 103.761 384.821 104.725 384.821 106.034V107.149H386.713L386.713 100.382H370.86Z" fill="#89B554"/>
<path d="M401.345 116.817V114.982H399.862C399.43 114.982 399.112 114.878 398.91 114.672C398.707 114.467 398.607 114.165 398.609 113.767V103.406C398.625 102.945 398.791 102.628 399.108 102.458C399.424 102.288 399.795 102.207 400.22 102.217H401.345V100.382H392.294V102.217H393.726C394.216 102.224 394.558 102.333 394.752 102.542C394.945 102.751 395.038 103.014 395.03 103.332V114.09C395.034 114.409 394.923 114.638 394.694 114.777C394.466 114.917 394.091 114.985 393.572 114.982H392.294V116.817H401.345Z" fill="#89B554"/>
<path d="M420.675 116.817H424.459V103.084C424.454 102.831 424.552 102.625 424.752 102.464C424.953 102.305 425.281 102.222 425.737 102.217H427.246V100.382H418.91V102.217H420.47C420.928 102.219 421.265 102.32 421.48 102.52C421.695 102.72 421.802 103.008 421.799 103.381V112.206H421.748L414.308 100.382H406.765V102.217H408.555C408.946 102.213 409.22 102.282 409.376 102.421C409.534 102.56 409.609 102.79 409.603 103.109V113.991C409.609 114.292 409.534 114.532 409.376 114.709C409.22 114.887 408.946 114.978 408.555 114.982H406.765V116.817H415.228V114.982H413.311C412.976 114.978 412.718 114.887 412.537 114.709C412.356 114.532 412.265 114.292 412.263 113.991V103.505H412.314L420.675 116.817Z" fill="#89B554"/>
<path d="M445.919 101.746C445.242 101.191 444.48 100.745 443.634 100.407C442.787 100.07 441.853 99.8963 440.831 99.8871C438.299 99.9367 436.313 100.761 434.874 102.359C433.434 103.958 432.701 106.034 432.674 108.587C432.704 111.272 433.444 113.389 434.893 114.939C436.341 116.49 438.321 117.281 440.831 117.313C441.768 117.313 442.706 117.164 443.643 116.87C444.581 116.575 445.416 116.136 446.149 115.553L447.095 116.817H448.936V111.116C448.923 110.63 449.012 110.3 449.201 110.124C449.39 109.949 449.753 109.866 450.291 109.876H451.595V108.042H442.365V109.876H444.001C444.348 109.873 444.658 109.966 444.928 110.155C445.199 110.344 445.341 110.648 445.356 111.066V112.008C445.36 112.964 445.052 113.729 444.433 114.301C443.813 114.873 442.86 115.166 441.572 115.181C439.791 115.142 438.527 114.514 437.778 113.297C437.03 112.08 436.667 110.51 436.689 108.587C436.698 106.708 437.088 105.155 437.859 103.927C438.629 102.699 439.722 102.063 441.137 102.019C442.771 102.067 443.991 102.559 444.797 103.493C445.603 104.428 446.164 105.515 446.481 106.753H448.45V100.382H446.558L445.919 101.746Z" fill="#89B554"/>
<path d="M257.384 91.6248H266.231V81.2083H268V76.7499H253.314V81.2083H256.012V82.958C255.703 83.5173 255.227 83.9928 254.586 84.3854C253.944 84.7778 253.004 84.9826 251.766 85C249.829 84.9462 248.338 84.1996 247.292 82.7601C246.246 81.3209 245.717 79.5118 245.705 77.333C245.734 75.184 246.296 73.3575 247.392 71.8539C248.487 70.351 249.945 69.5658 251.766 69.5003C253.109 69.5096 254.259 69.9699 255.216 70.8804C256.172 71.7908 256.703 73.0947 256.808 74.7914H264.727V62.5002H258.136L257.207 65.5C256.938 65.0625 256.214 64.3958 255.034 63.5001C253.853 62.6044 251.702 62.1044 248.581 62C244.996 62.0712 241.87 63.4912 239.203 66.2605C236.535 69.0297 235.135 72.7206 235 77.333C235.095 81.8817 236.442 85.4514 239.042 88.0417C241.642 90.6317 244.925 91.9512 248.89 92C250.616 91.9711 252.107 91.6638 253.363 91.0779C254.62 90.4921 255.502 89.7991 256.012 88.9996L257.384 91.6248Z" fill="white"/>
<path d="M282.107 86.5105H279.968L279.968 82.1947C279.979 80.3874 280.503 79.1512 281.54 78.4856C282.578 77.8206 284.064 77.5065 286 77.5432V70C283.866 70.0299 282.348 70.3998 281.449 71.1106C280.55 71.8213 279.857 72.6943 279.369 73.7298L278.086 71.0479H270.043V76.4953H271.882V86.5105H270V92H282.107V86.5105V86.5105Z" fill="white"/>
<path d="M299.117 75.8364C300.483 75.8778 301.374 76.2489 301.788 76.9494C302.202 77.6502 302.398 78.4321 302.377 79.2945H295.724C295.736 78.678 295.976 77.9664 296.445 77.1602C296.914 76.3541 297.805 75.9129 299.117 75.8364V75.8364ZM306.298 85.0448C305.094 85.9825 303.956 86.5714 302.884 86.8119C301.811 87.0526 300.894 87.155 300.13 87.1197C298.338 87.0449 297.152 86.6004 296.572 85.785C295.992 84.9701 295.665 84.2332 295.592 83.5748H309.471C309.905 82.2868 310.072 80.95 309.972 79.5652C309.872 78.1796 309.675 77.0809 309.383 76.2687C308.713 74.4183 307.453 72.92 305.605 71.7724C303.756 70.6249 301.505 70.0342 298.852 70C295.448 70.0268 292.641 71.0212 290.431 72.9828C288.222 74.9444 287.078 77.7112 287 81.2833C287.143 85.4031 288.399 88.3936 290.767 90.2543C293.135 92.1148 295.757 93.0301 298.632 92.9992C300.906 93.0155 302.966 92.7344 304.811 92.1566C306.656 91.5781 308.386 90.6054 309.999 89.2385L306.298 85.0448V85.0448Z" fill="white"/>
<path d="M322.658 87.3053C321.985 87.2964 321.434 87.1066 321.002 86.736C320.571 86.3657 320.348 85.8694 320.333 85.2472C320.33 84.5565 320.534 84.0002 320.947 83.5778C321.36 83.1556 322.004 82.9383 322.877 82.9266C323.783 82.9658 324.428 83.1497 324.812 83.4795C325.197 83.8087 325.414 84.0474 325.465 84.1962V85.8601C325.257 86.2079 324.905 86.5309 324.407 86.829C323.909 87.1276 323.326 87.2861 322.658 87.3053V87.3053ZM314.763 77.1899C315.603 76.7036 316.577 76.2531 317.685 75.838C318.794 75.4226 319.998 75.2019 321.298 75.1754C322.508 75.1546 323.499 75.3166 324.27 75.6628C325.041 76.0086 325.439 76.6635 325.465 77.6278V79.1604C325.35 78.9818 324.922 78.6935 324.182 78.2957C323.442 77.8979 322.422 77.6751 321.123 77.6278C318.574 77.654 316.434 78.3785 314.703 79.8011C312.971 81.223 312.07 83.1846 312 85.6849C312.099 88.2123 313.019 90.0661 314.757 91.2464C316.496 92.427 318.457 93.0107 320.64 92.9981C321.476 93.021 322.458 92.8328 323.584 92.4341C324.711 92.0354 325.703 91.2893 326.561 90.1957L327.614 92.1661H337V86.5608H334.368V78.0217C334.319 75.6909 333.682 73.867 332.457 72.5498C331.231 71.2324 329.713 70.3072 327.903 69.7731C326.093 69.2393 324.286 68.9818 322.482 69.001C320.428 69.065 318.55 69.4519 316.846 70.1615C315.143 70.8711 313.835 71.5207 312.921 72.1101L314.763 77.1899V77.1899Z" fill="white"/>
<path d="M338 76.1808H340.432V83.897C340.366 86.7038 340.724 88.9146 341.508 90.5296C342.292 92.144 344.305 92.968 347.549 93C348.145 92.9982 349.014 92.9264 350.157 92.7835C351.299 92.6406 352.246 92.4387 353 92.1768V86.6282C352.544 86.8106 352.037 86.9766 351.48 87.1265C350.922 87.2764 350.483 87.3557 350.162 87.3649C349.334 87.3125 348.874 86.9187 348.783 86.1836C348.691 85.4484 348.671 84.6864 348.72 83.897V76.1808H353V70.5457H348.72V64L340.432 66.5578V70.5457H338V76.1808V76.1808Z" fill="white"/>
<path d="M379.987 67.5792C381.303 67.5839 382.326 67.9186 383.057 68.5825C383.788 69.2471 384.159 70.2142 384.17 71.4849C384.149 72.6288 383.741 73.5069 382.945 74.119C382.148 74.7315 381.087 75.0411 379.762 75.0472H377.738V67.5792H379.987ZM366 67.6224H368.519V86.3347H366V92H380.482V86.3347H377.738V79.6825H381.156C384.463 79.6825 387.239 78.9743 389.483 77.5579C391.727 76.1419 392.894 74.0173 392.985 71.1844C393.12 68.6612 392.355 66.5191 390.691 64.7573C389.027 62.996 385.654 62.0769 380.572 62H366V67.6224V67.6224Z" fill="white"/>
<path d="M407 86.4106H404.575V60H395.041V65.504H396.767V86.4106H395V92H407L407 86.4106Z" fill="white"/>
<path d="M419.658 87.3053C418.986 87.2964 418.434 87.1066 418.002 86.736C417.571 86.3657 417.348 85.8694 417.334 85.2472C417.33 84.5565 417.534 84.0002 417.948 83.5778C418.36 83.1556 419.004 82.9383 419.877 82.9266C420.783 82.9658 421.428 83.1497 421.813 83.4795C422.197 83.8087 422.415 84.0474 422.465 84.1962V85.8601C422.258 86.2079 421.905 86.5309 421.407 86.829C420.909 87.1276 420.326 87.2861 419.658 87.3053V87.3053ZM411.763 77.1899C412.603 76.7036 413.577 76.2531 414.685 75.838C415.794 75.4226 416.998 75.2019 418.298 75.1754C419.508 75.1546 420.499 75.3166 421.27 75.6628C422.041 76.0086 422.44 76.6635 422.465 77.6278V79.1604C422.35 78.9818 421.922 78.6935 421.182 78.2957C420.442 77.8979 419.422 77.6751 418.123 77.6278C415.575 77.654 413.435 78.3785 411.703 79.8011C409.971 81.223 409.07 83.1846 409 85.6849C409.1 88.2123 410.019 90.0661 411.758 91.2464C413.497 92.427 415.457 93.0107 417.641 92.9981C418.477 93.021 419.458 92.8328 420.585 92.4341C421.711 92.0354 422.704 91.2893 423.562 90.1957L424.614 92.1661H434V86.5608H431.369V78.0217C431.319 75.6909 430.682 73.867 429.457 72.5498C428.231 71.2324 426.714 70.3072 424.903 69.7731C423.093 69.2393 421.287 68.9818 419.482 69.001C417.429 69.065 415.55 69.4519 413.846 70.1615C412.143 70.8711 410.835 71.5207 409.921 72.1101L411.763 77.1899V77.1899Z" fill="white"/>
<path d="M437.2 64.364C437.224 65.442 437.658 66.4192 438.502 67.2943C439.345 68.1695 440.455 68.633 441.828 68.6845C443.356 68.6517 444.523 68.2257 445.327 67.4066C446.131 66.5876 446.537 65.5735 446.543 64.364C446.531 63.3211 446.115 62.3476 445.295 61.444C444.474 60.5401 443.319 60.0593 441.828 60C440.323 60.0593 439.177 60.5401 438.389 61.444C437.602 62.3476 437.205 63.3211 437.2 64.364V64.364ZM448 86.3958H445.943V70.6098H436V76.171H437.8V86.3958H436V92H448V86.3958Z" fill="white"/>
<path d="M464.193 86.4362H461.109V80.4052C461.084 79.4418 461.261 78.5552 461.639 77.7455C462.016 76.9362 462.739 76.5058 463.807 76.4558C465.013 76.5301 465.728 77.0075 465.954 77.8888C466.18 78.7704 466.264 79.609 466.206 80.4052V92H477V86.4362H474.987V79.3436C475.078 77.003 474.617 74.8886 473.6 72.9996C472.584 71.1106 470.462 70.1106 467.234 70C465.889 70.0164 464.713 70.3336 463.705 70.9502C462.698 71.5667 461.832 72.3826 461.109 73.3976L460.124 70.7643H451V76.2854H452.799V86.4362H451V92H464.193V86.4362V86.4362Z" fill="white"/>
<path d="M484.55 91.4959L484.949 88.935C485.499 89.7605 486.364 90.4707 487.546 91.0658C488.728 91.6604 490.127 91.9718 491.742 92C493.97 91.984 495.885 91.4275 497.486 90.3308C499.087 89.2339 499.925 87.6913 500 85.7022C499.913 83.562 499.143 82.0277 497.691 81.0996C496.239 80.172 494.626 79.4667 492.852 78.985C491.381 78.5459 490.116 78.1435 489.056 77.7781C487.996 77.4125 487.441 76.9469 487.391 76.3818C487.405 75.8598 487.577 75.4767 487.907 75.2324C488.237 74.9886 488.643 74.8682 489.123 74.8708C490.283 74.8933 491.315 75.2047 492.219 75.8047C493.124 76.4048 493.601 77.157 493.651 78.0611H499.423V70.5044H493.962L493.607 73.275C493.112 72.3489 492.271 71.5777 491.082 70.961C489.893 70.344 488.53 70.0242 486.991 70.0003C485.287 69.9867 483.591 70.4659 481.902 71.4383C480.215 72.411 479.306 73.9608 479.178 76.0879C479.235 78.0318 479.842 79.5186 480.998 80.5486C482.154 81.5792 483.516 82.3315 485.083 82.8056C486.753 83.2908 488.24 83.6844 489.545 83.986C490.849 84.288 491.537 84.7339 491.609 85.3241C491.583 85.8981 491.368 86.283 490.965 86.4792C490.562 86.6747 490.125 86.7656 489.655 86.7521C488.877 86.7737 487.926 86.5828 486.803 86.1795C485.68 85.7765 485.062 85.0295 484.949 83.939H479V91.4959H484.55V91.4959Z" fill="white"/>
</svg>
