<svg width="503" height="376" viewBox="0 0 503 376" fill="none" xmlns="http://www.w3.org/2000/svg">
<path d="M389.887 167.384C390.834 167.47 391.866 167.528 392.944 167.573C383.903 167.639 375.215 167.726 374.248 167.708C374.755 167.678 379.181 167.584 389.887 167.384H389.887ZM127.671 162.459C114.457 162.445 106.786 162.576 127.752 163.568C101.943 164.357 170.097 163.318 127.413 164.232C121.747 167.471 73.7044 167.731 118.498 168.939C135.125 168.283 67.9941 170.846 105.255 171.09C62.711 171.462 138.901 171.77 102.82 171.929C74.8742 172.155 124.955 172.638 93.3226 172.673C94.262 173.77 97.5971 174.373 101.507 174.675C90.7412 176.936 110.14 177.623 108.528 177.448C135.113 176.961 74.3374 178.833 113.006 178.544C145.507 178.004 78.7382 178.895 113.534 179.68C50.2049 181.067 176.385 180.681 118.309 181.832C86.927 182.235 139.463 183.302 108.826 183.929C107.598 183.919 107.271 183.909 106.418 183.901C111.549 184.011 118.154 184.316 106.878 185.024C105.94 185.063 105.031 185.118 104.172 185.187C103.647 185.215 103.279 185.238 102.698 185.268C102.886 185.273 103.014 185.277 103.198 185.281C102.137 185.389 101.182 185.514 100.411 185.687C116.454 187.028 132.578 187.438 148.734 187.486C148.681 186.088 148.653 184.677 148.653 183.266C148.653 176.157 149.338 169.214 150.641 162.486C143.845 162.511 134.981 162.467 127.671 162.459ZM416.726 176.366C418.118 176.342 419.404 176.303 420.433 176.258C419.197 176.296 417.962 176.332 416.726 176.366ZM405.241 161.972C406.543 161.914 407.869 161.843 409.232 161.729C406.783 161.736 405.633 161.825 405.241 161.972ZM415.455 125.676C414.382 125.694 412.056 126.179 407.919 127.367C390.997 131.73 374.862 137.869 358.758 144.074C363.461 156.235 366.049 169.446 366.049 183.266C366.049 184.686 366.009 186.106 365.955 187.513C390.599 187.716 415.252 188.008 439.873 186.864C424.006 187.311 406.881 185.664 404.875 184.645C397.626 184.188 393.919 184.016 392.375 183.955C395.61 184.067 408.44 184.307 415.617 182.413C412.132 181.764 408.191 181.387 403.063 181.223C414.555 181.024 422.21 180.66 405.498 180.452C421.601 179.255 405.935 177.8 387.181 176.921C397.029 176.82 406.88 176.642 416.726 176.366C399.93 176.651 360.808 175.477 396.894 175.041C411.739 172.271 388.021 174.876 400.262 171.334C392.068 170.48 373.795 170.289 373.152 170.157C373.421 170.104 376.747 170.054 384.989 169.968C399.433 169.853 448.903 168.2 408.068 168.561C391.514 167.874 442.049 167.435 411.68 167.532C409.534 167.511 406.76 167.499 403.766 167.505C415.984 166.996 425.782 165.312 405.768 165.557C413.29 164.677 394.976 164.675 388.533 164.705C389.481 164.701 390.941 164.685 397.908 164.61C419.968 164.706 403.327 162.688 405.241 161.972C392.797 162.532 384.131 160.781 399.843 160.714C379.979 160.556 425.107 159.667 425.628 159.361C425.373 159.283 421.616 159.242 412.1 159.28C386.754 159.558 426.361 158.432 403.293 158.171C387.751 157.873 352.807 159.574 388.736 157.63C402.735 156.831 431.148 156.216 400.966 156.277C397.594 156.258 395.918 156.244 393.877 156.236C403.531 156.203 419.899 155.979 414.304 154.897C408.853 154.214 392.626 154.001 380.525 153.936C385.004 153.867 390.887 153.748 396.691 153.639C391.908 153.469 416.686 150.381 391.198 151.258C384.689 151.308 378.187 151.342 371.677 151.38C394.864 143.122 418.105 134.988 441.28 126.704C428.383 131.124 400.496 136.757 400.763 136.282C411.081 134.258 419.343 127.032 410.206 129.802C414.097 127.858 417.813 125.638 415.455 125.676ZM408.081 113.325C407.519 113.391 406.536 113.875 405.552 114.488C406.762 114.158 407.792 113.873 408.542 113.69C408.581 113.467 408.492 113.351 408.298 113.325C408.236 113.317 408.162 113.316 408.081 113.325ZM391.658 113.163C391.388 113.39 391.105 113.756 390.387 114.502C382.033 117.95 351.016 128.788 375.479 119.413C378.476 118.773 386.193 115.771 391.658 113.163ZM102.345 102.584C99.4186 101.54 95.8442 100.404 91.3874 99.1883C95.0403 100.319 98.6931 101.452 102.345 102.584ZM126.574 94.1826C126.753 94.351 130.1 96.7956 138.98 103.26C137.794 104.17 141.519 107.568 146.298 111.228C134.16 102.692 122.218 93.7134 141.023 108.279C118.242 93.0108 138.945 106.818 158.703 120.563C145.174 117.36 131.937 113.624 119.797 107.981C113.982 106.179 108.161 104.385 102.345 102.584C110.083 105.343 113.149 107.431 114.886 108.482C143.198 117.981 97.2385 104.079 128.752 114.488C127.284 114.572 82.0459 101.245 110.246 110.741C73.7334 99.8078 135.786 119.351 108.595 111.269C143.022 122.037 84.8593 106.656 120.771 119.318C122.368 119.902 124.161 120.536 126.047 121.198C104.516 114.546 91.0649 110.457 101.06 113.758C109.969 117.453 121.614 121.157 126.683 122.713C124.32 122.024 120.261 120.868 112.83 118.777C79.8152 116.403 152.526 135.383 105.781 122.619C77.5745 115.001 131.916 132.293 99.6533 122.511C115.887 128.238 139.901 135.476 110.503 126.461C87.6697 120.916 113.242 130.571 110.543 129.342C112.085 129.86 113.374 130.293 114.67 130.722C110.238 129.537 105.2 128.356 100.655 127.665C110.297 132.865 128.646 137.238 104.185 131.101C122.2 137.223 99.9594 131.65 110.855 135.119C102.462 132.838 103.574 133.679 123.328 139.854C165.334 153.234 83.3208 128.761 122.759 141.842C115.529 140.533 90.8533 132.003 112.072 140.395C75.9766 130.491 156.335 154.796 117.484 143.384C101.757 140.395 120.616 146.427 140.413 152.394C118.103 152.427 95.7325 151.139 73.3818 151.921C98.4857 153.085 108.594 153.601 101.75 154.843C105.685 155.081 108.835 155.244 111.436 155.357C106.384 155.485 99.7308 155.883 92.7542 156.899C110.383 156.89 148.678 156.933 110.408 157.63C128.828 158.028 165.25 159.07 124.166 158.035C115.581 158.448 151.049 161.351 123.22 160.308C126.344 161.842 136.963 162.371 150.641 162.473C153.6 147.203 159.749 133.071 168.376 120.806C166.547 119.638 162.895 117.212 156.701 113.027C135.748 99.0095 115.438 84.8493 146.988 107.522C154.052 113.707 126.039 93.6779 126.574 94.1826ZM172.813 65.287C173.79 66.7407 174.815 68.2476 175.749 69.6429C174.849 68.4247 173.844 66.8649 172.813 65.287ZM183.595 64.6779C185.623 67.5956 187.654 70.5147 189.656 73.4441C187.535 70.5788 185.572 67.6255 183.595 64.6779ZM242.646 27.313C242.132 25.3109 241.564 23.3121 240.954 21.4148C241.593 23.8359 242.144 25.7489 242.646 27.313ZM226.114 29.2883C225.028 21.3186 223.899 21.7766 226.114 29.2883V29.2883ZM227.048 40.2731C226.248 36.168 225.618 33.2909 227.088 41.058C227.077 40.787 227.061 40.5376 227.048 40.2731ZM194.661 64.2857C193.844 63.1494 193.023 62.0199 192.199 60.8901C186.989 53.9368 193.377 63.0134 195.432 65.6251C195.194 65.1883 194.922 64.7372 194.661 64.2857ZM167.24 57.0212C165.671 54.7078 164.116 52.3978 162.573 50.1489C161.619 49.0134 165.384 54.4537 167.24 57.0212ZM137.451 60.9442C134.952 58.9857 132.237 56.9468 129.334 54.9108C131.995 56.9654 134.71 58.9706 137.451 60.9442ZM377.522 68.7095C387.371 61.3554 392.912 57.003 376.48 68.6147C375.702 69.2818 376.473 69.0601 377.522 68.7095ZM369.134 64.164C368.923 64.4511 367.02 66.0143 362.776 69.3316C378.246 57.555 375.546 59.2697 369.134 64.164ZM356.837 56.142C358.888 53.4108 361.687 49.1359 365.887 41.9238C362.903 46.6757 359.877 51.4156 356.837 56.142ZM331.675 52.151C331.622 52.245 331.552 52.3796 331.499 52.4757C337.128 44.7 334.15 49.5624 330.458 55.3437C330.773 54.9566 331.075 54.5874 331.377 54.2074C335.612 47.7944 335.465 48.2619 334.002 50.7982C341.348 40.8844 342.686 35.8333 331.675 52.151ZM327.725 53.6663C327.924 53.3602 328.114 53.0745 328.387 52.6381C327.618 53.7606 327.348 54.1489 326.805 54.9376C327.115 54.5039 327.426 54.0727 327.725 53.6663ZM298.571 50.406C298.342 50.8978 297.729 53.4507 298.571 50.406V50.406ZM296.164 41.207C295.839 43.5073 295.419 46.2394 294.865 49.5536C297.414 36.032 297.191 36.2342 296.164 41.207ZM245.649 21.0091C246.411 30.6377 245.92 37.5212 242.646 27.313C246.239 41.3299 247.168 55.1043 241.239 29.126C237.836 24.8507 237.611 31.2723 238.926 42.181C237.685 37.4338 236.358 32.9624 234.908 28.8961C243.304 60.5814 227.746 17.7286 230.701 41.8563C228.459 36.555 227.016 32.3459 226.115 29.2883C226.481 31.974 226.824 35.6203 227.048 40.2731C228.331 46.8563 230.059 56.6186 224.302 30.8845C216.934 8.95761 227.995 59.2641 219.459 26.4611C217.82 28.258 218.073 32.4831 218.444 35.0649C218.03 33.2286 217.271 30.0965 215.874 24.9728C217.77 64.7303 207.147 4.55761 211.193 45.8875C209.164 35.781 210.265 50.8368 212.221 67.4515C202.806 52.8853 193.426 38.3047 182.636 24.4589C187.366 31.1165 192.798 37.545 196.123 44.8325C194.906 44.9368 203.811 56.4861 198.558 50.0813C196.721 47.6377 189.877 38.3788 194.526 45.2922C197.06 49.181 202.04 55.8056 203.049 58.0627C200.691 55.0208 196.125 48.6715 195.379 47.6463C196.817 49.6208 202.059 57.5913 197.963 52.0429C196.377 49.9061 190.187 41.4022 194.838 47.9978C199.276 54.5662 204.367 60.8689 208.163 67.722C201.062 59.1614 195.829 49.5173 188.304 41.207C189.765 45.2147 195.658 52.9065 196.38 54.329C191.897 48.1692 187.62 41.8701 182.771 35.9173C189.908 47.0143 197.941 57.6879 205.132 68.7636C199.572 61.3546 194.898 53.413 188.953 46.2394C190.402 48.8147 196.911 57.5117 195.555 55.9658C190.068 49.7143 185.247 43.0667 180.255 36.526C184.325 43.8779 189.969 50.6627 193.539 58.1576C191.762 56.8537 188.003 52.8735 190.928 57.2242C192.75 59.9536 194.581 62.6809 196.407 65.4086C192.328 59.6156 188.222 53.8407 184.083 48.0793C187.524 53.2987 191.738 59.2251 194.662 64.2857C197.961 68.8709 201.149 73.5307 203.699 78.4497C196.724 70.1558 192.539 60.0268 183.88 52.8138C185.336 57.0285 190.834 62.2901 191.97 65.0974C189.758 62.9108 187.07 58.4459 184.949 57.5758C188.274 63.4377 184.39 56.9428 182.5 54.8026C184.121 57.4827 187.981 64.7658 183.393 58.5498C178.88 52.429 185.431 62.0606 186.965 64.313C192.258 72.0689 197.696 79.7554 203.09 87.4593C191.363 71.3857 179.678 55.2753 167.809 39.2857C169.865 42.7541 176.253 51.8152 175.939 51.5966C173.482 48.5125 179.144 56.5914 180.227 58.2251C181.724 60.3268 185.375 65.8593 181.648 60.6601C177.528 55.0471 173.616 49.319 169.391 43.7636C172.444 48.4857 175.61 53.158 178.82 57.8056C177.697 56.2727 176.539 54.7554 175.303 53.2875C175.422 53.964 176.124 55.2931 177.048 56.8048C174.53 53.2757 171.826 49.8481 168.688 46.7264C170.025 50.5234 177.594 58.7324 176.791 59.348C174.712 56.7424 171.533 52.1836 170.392 50.771C176.702 59.9576 183.337 69.0078 189.088 78.4631C182.76 70.045 177.42 60.9736 170.365 53.0169C172.709 56.964 175.944 61.4559 178.455 65.1108C176.087 61.7722 172.494 57.3065 176.101 63.4333C177.536 66.0299 181.406 72.0091 177.333 65.9904C175.571 63.629 169.229 54.5852 169.987 56.0199C171.303 58.0238 176.424 65.1017 172.462 59.8891C171.11 57.9221 166.878 52.9004 167.633 54.4645C166.007 52.1948 164.311 49.9632 162.478 47.8221C163.505 50.6645 168.594 57.6433 167.984 58.0359C167.826 57.8247 167.488 57.3636 167.24 57.0212C168.523 58.9125 169.767 60.7489 171.028 62.6216C169.65 60.658 168.281 58.9826 167.078 58.3606C172.741 67.5602 179.285 76.3324 185.436 85.2948C178.419 76.0047 172.11 66.2792 164.21 57.5082C167.827 63.8745 173.294 69.406 176.426 75.974C171.817 70.2896 168.002 64.1532 163.466 58.4281C165.058 62.1904 171.581 69.6147 170.744 71.0363C167.43 67.6169 164.613 63.8537 161.816 60.119C167.693 68.5039 173.552 76.8957 179.321 85.3354C173.192 77.0108 167.911 68.2203 161.396 60.119C164.494 66.6771 169.078 72.6835 173.193 78.8151C168.732 72.5021 164.594 65.9624 159.475 60.0242C166.526 71.9324 174.287 83.5216 182.27 94.9944C172.376 88.7991 163.137 81.9883 155.579 73.6065C149.528 69.3987 143.418 65.2411 137.452 60.9442C146.546 68.0719 152.695 74.1225 153.766 74.9052C177.49 92.1446 173.402 89.942 152.481 74.8783C158.018 79.7952 171.168 88.3805 163.06 83.2653C180.984 95.5514 186.926 102.589 165.509 85.7411C154.072 76.2285 133.928 65.2251 146.772 74.5944C141.809 71.1602 139.679 69.7524 139.508 69.7242C139.615 70.0337 151.611 78.7826 161.64 86.0389C135.871 68.7225 186.458 105.916 151.764 80.8715C135.257 69.2234 135.133 69.9532 150.628 80.9524C145.924 79.7164 161.427 91.6969 176.588 102.827C156.779 88.6857 137.627 75.0307 135.693 73.6879C136.236 74.0917 139.273 76.2839 145.771 80.9524C152.198 85.7952 180.031 106.445 157.284 90.354C175.507 104.049 168.778 98.9446 147.746 84.632C153.93 89.1186 168.716 100.683 150.641 87.8515C159.464 94.6948 148.801 86.6026 165.888 99.7156C122.743 69.9826 169.217 102.271 160.584 97.5108C114.071 66.1298 208.069 133.722 160.368 101.014C148.838 93.2537 127.245 78.0481 150.006 94.548C112.046 68.5437 172.537 111.669 165.387 106.804C159.151 102.189 120.907 75.1234 144.229 92.2619C123.631 77.6948 119.03 74.8879 143.417 92.113C153.148 100.19 122.514 78.4749 146.583 96.0766C136.009 88.8104 140.41 92.2225 147.151 97.2263C133.054 87.6103 129.814 87.5805 147.084 99.4047C129.51 87.2281 168.37 115.665 139.223 94.5346C159.84 109.65 168.581 117.296 154.74 106.615C142.575 98.0493 108.844 74.5796 138.452 96.2121C177.845 123.693 89.3837 62.3618 135.679 96.0359C114.978 82.4675 160.591 114.574 168.526 120.603C188.208 92.7571 220.658 74.567 257.351 74.567C303.384 74.567 342.72 103.189 358.569 143.601C379.049 136.429 399.481 129.142 419.987 122.024C411.793 124.454 370.503 137.283 396.542 127.692C409.23 117.77 369.566 131.749 391.821 123.81C399.177 121.367 435.651 108.451 410.016 116.937C399.332 119.919 402.397 116.461 405.525 114.502C397.042 116.822 380.292 121.761 396.84 115.314C403.099 112.671 402.112 112.343 410.544 106.858C397.044 111.897 393.702 112.414 392.43 112.784C398.39 109.864 400.988 107.644 389.738 110.281C411.415 102.534 375.795 112.354 380.025 110.444C389.618 108.132 399.203 103.02 384.069 108.022C375.427 111.526 366.691 114.858 357.893 118.074C363.04 114.416 368.455 111.234 374.302 108.834C388.975 98.3788 403.426 87.6485 416.78 75.9468C402.658 86.3506 356.973 122.593 393.823 92.6268C370.832 110.309 390.044 94.0965 390.184 93.9528C371.955 108.816 351.096 122.664 381.309 100.216C402.766 83.6766 398.086 86.7342 380.146 100.784C353.243 121.691 405.44 80.29 372.909 105.141C364.397 111.648 354.905 118.724 353.482 119.683C353.446 119.696 353.41 119.711 353.374 119.724C353.831 119.304 357.658 116.338 367.064 109.172C382.125 98.3494 425.687 62.4757 389.859 90.4221C345.54 123.449 428.562 59.7125 392.443 86.7017C386.103 91.5147 376.818 98.2783 368.296 104.545C385.484 91.4411 402.699 78.0389 383.339 92.7082C385.834 90.7194 388.352 88.713 390.657 86.8233C388.094 88.6905 386.01 90.2333 384.286 91.5312C387.742 88.6251 392.428 84.513 397.828 79.329C392.946 82.6212 354.594 110.845 378.915 91.1255C378.044 91.6801 377.171 92.2303 376.304 92.7891C381.859 88.4112 387.351 83.9753 392.755 79.4507C388.337 82.8459 377.497 91.1463 369.161 97.4835C367.468 98.6134 365.781 99.7484 364.102 100.893C365.332 99.9164 366.75 98.79 368.458 97.4429C366.545 98.9536 365.177 100.027 363.831 101.082C362.892 101.722 361.952 102.359 361.017 103.003C363.883 100.668 368.362 97.0887 372.8 93.6281C361.544 103.891 386.739 82.7091 364.805 99.4181C316.955 134.662 408.216 65.6251 369.716 94.3991C373.013 90.5324 377.627 87.5312 362.289 99.1342C352.905 105.216 401.561 66.9822 366.523 93.6688C374.792 86.7524 385.615 77.4207 366.591 91.6667C350.287 104.375 339.652 111.573 361.45 94.3316C379.341 81.139 402.21 61.0073 374.437 82.9406C355.836 97.4289 352.064 99.6381 373.044 83.2792C391.369 69.6891 389.326 70.2627 374.924 80.9658C386.28 72.0827 398.743 64.1714 379.903 75.5411C403.67 57.7061 369.749 81.5394 377.738 75.8792C394.455 62.9944 365.618 84.0273 363.236 85.6735C364.069 85.0359 367.026 82.8259 373.287 78.1926C390.273 65.529 362.466 85.7948 383.366 69.1151C363.939 82.8325 384.746 68.1974 365.36 82.8325C337.948 103.267 382.48 69.0818 366.09 80.587C366.567 80.219 366.608 80.1848 367.051 79.8429C369.917 77.768 372.557 75.7013 374.748 73.8771C377.662 71.5987 377.957 71.3234 376.453 72.4294C379.603 69.6995 381.314 67.8619 380.417 68.168C380.309 67.7364 378.73 68.3056 377.522 68.7091C363.017 79.5385 339.273 96.8125 361.68 79.8429C362.303 79.4991 363.001 79.0225 363.953 78.1654C380.025 66.5216 383.967 61.8368 368.742 73.1462C369.955 71.767 371.316 70.1524 373.017 68.1138C359.926 78.8579 330.752 99.1818 360.896 76.4611C381.421 61.7878 381.606 58.8212 361.599 74.9052C335.607 93.9796 363.803 71.784 363.98 71.1982C368.172 68.0467 370.232 66.4775 370.744 66.0714C370.106 66.5208 367.093 68.7364 363.019 71.7935C363.628 71.3676 363.94 71.1762 363.967 71.1982C361.725 72.8839 359.121 74.8398 355.566 77.5026C355.463 77.5498 355.376 77.5818 355.281 77.6242C358.05 75.5264 360.668 73.5584 363.019 71.7935C361.877 72.5939 359.638 74.2455 355.742 77.1644C355.458 77.3706 355.137 77.603 354.848 77.8138C348.297 80.5688 361.414 70.0567 369.134 64.1636C369.987 63.0073 343.745 82.2601 331.634 91.2199C337.416 80.9333 343.948 71.129 352.576 62.7433C354.001 60.5472 355.421 58.3428 356.837 56.1416C351.21 63.6368 351.199 59.4611 343.377 71.8475C353.301 55.2623 346.746 62.332 341.835 69.4805C345.257 63.7432 349 57.8567 349.181 57.4809C348.95 57.7728 347.115 60.5173 342.646 67.2346C358.598 41.3671 327.251 89.3078 335.544 76.2579C340.929 67.5676 352.919 47.1952 339.873 67.4511C345.949 57.6463 356.642 39.6969 342.132 61.1199C360.154 33.4108 329.38 78.9013 339.886 60.403C338.009 63.0117 335.683 66.326 333.122 70.0351C341.873 56.561 346.548 49.1792 342.281 55.7087C337.961 62.2104 333.477 68.352 332.919 68.8039C334.704 66.1 336.619 63.1307 338.601 60.0242C334.07 66.629 332.597 69.0125 332.906 68.8039C323.769 82.6415 318.727 89.0611 333.406 65.7736C333.67 64.1476 333.73 63.2511 333.677 62.8108C334.407 61.506 335.558 59.2523 337.357 55.3974C334.996 57.8952 331.184 63.6151 327.819 68.9662C329.563 65.9874 331.548 62.568 334.11 58.1437C330.607 58.7692 301.673 106.975 323.626 70.806C332.168 57.2813 350.292 27.1229 330.782 56.9398C326.27 63.6801 331.677 54.8264 334.002 50.7978C333.196 51.8849 332.318 53.0268 331.377 54.2069C330.272 55.8801 328.968 57.8731 327.197 60.5922C325.761 62.7458 324.949 63.939 324.613 64.4342C325.206 63.5004 327.93 59.2995 330.458 55.3432C329.896 56.0311 329.325 56.7242 328.726 57.4268C329.82 55.4948 330.682 53.9489 331.499 52.4753C331.305 52.7432 331.186 52.8943 330.971 53.1926C331.227 52.81 331.431 52.5121 331.675 52.1506C338.596 39.6433 335.441 43.7666 326.115 57.8731C331.428 48.9892 329.943 50.6415 327.725 53.6657C327.222 54.4363 326.899 54.8961 326.778 54.9918C326.774 54.9974 326.768 55.0004 326.764 55.0052C325.974 55.4995 333.893 40.5351 324.018 56.9532C334.062 39.6398 311.621 74.242 325.303 52.3536C328.849 47.5883 325.813 50.3234 324.748 51.0281C333.202 37.4286 338.034 28.2242 322.327 51.3662C318.147 57.5442 316.217 60.4034 315.617 61.2957C317.043 59.1268 324.301 48.0823 323.612 47.903C317.875 56.1814 308.269 70.765 307.798 71.2663C307.872 71.0407 310.229 67.2679 316.442 57.535C327.219 39.1784 318.813 50.3164 314.102 57.2511C321.257 45.3069 328.66 35.9874 314.521 54.3017C318.382 45.3225 307.334 62.632 303.645 68.5065C304.601 66.9644 306.157 64.4497 308.488 60.6601C319.106 43.8697 321.661 41.3546 308.582 59.2667C317.28 43.3099 305.838 61.926 295.744 77.7732C297.1 66.632 299.166 55.7312 303.428 45.6169C305.207 36.2731 306.907 26.9143 308.501 17.5459C300.848 54.0121 308.426 16.6663 301.507 42.8974C294.108 80.632 306.72 11.1914 299.072 48.593C298.836 49.4689 298.712 49.8965 298.571 50.4056C298.761 49.9978 298.647 51.1645 297.083 58.6307C292.883 78.1182 306.009 0.949405 298.72 39.1502C297.383 46.0783 296.812 48.6922 296.705 48.7822C296.488 48.0637 302.488 12.7377 297.53 38.2845C294.99 50.1732 287.5 89.5099 293.228 57.1562C294.152 51.4385 295.383 44.9832 296.164 41.2065C299.049 20.7368 293.371 38.2715 288.588 56.8991C290.138 48.6589 291.61 40.3987 292.958 32.129C288.857 46.1346 282.048 85.0909 287.925 48.6199C291.419 32.2917 286.138 47.5857 289.102 27.8C284.428 56.6709 289.559 21.5546 283.731 53.152C283.491 53.2987 285.269 34.4723 281.201 55.0727C270.758 105.506 293.245 -16.2615 281.716 41.3013C278.552 55.4649 286.693 9.90307 280.119 43.371C279.388 47.1247 279.042 48.8645 278.631 50.9874C280.348 41.9676 283.077 27.2256 280.701 36.8775C284.2 20.348 275.377 41.0225 277.387 40.8684C275.909 47.6026 274.056 56.9502 273.112 61.7965C273.515 59.7208 274.014 57.1598 275.209 50.9199C277.414 41.6143 277.484 32.6377 276.196 37.9329C278.464 23.6472 267.557 75.7913 274.235 41.2879C276.698 27.2761 270.158 59.8112 274.383 36.6611C274.662 33.2164 274.502 32.8264 274.153 33.9554C277.6 16.9424 275.482 19.2416 273.084 32.1021C276.042 15.2533 262.494 85.5584 270.934 41.8424C272.558 25.748 270.284 36.0065 268.039 48.0381C271.471 21.0887 265.939 55.9796 264.589 54.0719C267.042 40.6913 266.923 34.4809 263.723 51.6368C264.844 42.0701 264.554 41.5722 263.655 45.2649C266.114 32.1814 267.644 23.6827 262.154 48.4441C264.453 29.8498 260.989 44.4034 257.121 62.8381C252.939 48.9606 248.691 35.0853 245.649 21.0091ZM242.173 0C242.933 7.07096 244.148 14.0615 245.649 21.0091C245.034 13.2264 243.603 3.69049 242.173 0Z" fill="#FFD652"/>
<path d="M193.341 165.184C191.409 167.653 187.382 169.518 183.099 169.013C183.86 168.417 186.044 169.088 185.82 167.636C182.006 167.186 180.726 168.2 177.927 168.365C178.093 170.333 177.318 172.345 176.205 173.41C175.09 174.475 173.638 174.602 172.383 172.787C169.654 174.714 167.385 174.985 164.717 174.613C166.084 174.053 167.286 173.859 167.991 173.501C171.786 171.607 170.633 171.571 168.209 172.054C165.789 172.536 162.129 173.616 160.938 173.841C158.601 178.696 154.387 180.015 150.34 180.091C152.025 179.387 153.723 178.71 155.418 178.042C153.423 177.36 151.122 177.697 149.241 178.469C147.358 179.238 145.906 180.439 145.567 181.44C146.673 180.84 147.572 180.929 148.251 181.696C140.136 184.872 132.863 188.562 125.874 192.931C118.888 197.306 112.182 202.377 105.269 208.543C105.693 209.777 106.379 209.308 106.932 209.716C106.835 210.227 105.626 212.446 104.862 211.158C104.495 210.385 105.335 210.12 105.133 209.415C102.491 210.932 102.594 212.657 100.158 212.965C100.547 215.48 101.729 212.297 102.256 213.804C100.914 214.809 100.705 216.267 98.871 217.094C97.4896 214.393 95.5719 218.874 91.8311 220.968C89.7727 221.118 87.0047 223.218 84.2939 225.967C81.5771 228.71 78.9294 232.103 76.9636 234.683C72.2758 240.807 67.5394 247.532 65.5264 254.953C66.3619 254.582 65.9225 251.879 67.2818 253.061C65.7927 255.287 68.2324 258.254 68.497 260.781C69.3965 259.286 70.3329 259.058 71.2814 259.572C70.8255 258.457 69.9459 257.266 70.1567 256.28C71.7389 257.952 71.0584 254.674 72.6355 256.353C71.5671 257.417 71.9312 259.713 73.3875 260.016C74.3999 258.763 77.5463 257.094 79.6502 257.981C80.4528 255.803 82.0342 252.586 83.8918 250.125C85.7441 247.66 87.8588 245.961 89.6108 246.747C89.2796 246.057 88.6195 245.26 88.9935 244.786C91.8013 245.078 93.9765 243.106 96.2913 241.15C98.5987 239.196 101.051 237.271 104.199 237.758C103.112 234.971 103.624 239.44 102.532 236.658C104.107 234.332 104.322 237.171 104.949 237.173C104.554 235.271 106.036 233.932 107.786 233.079C109.534 232.219 111.548 231.858 112.21 231.751C110.191 234.094 106.565 236.375 106.462 240.004C105.672 237.028 106.326 239.116 105.779 239.738C104.434 241.259 101.78 243.378 99.103 245.612C96.4259 247.844 93.7329 250.188 92.2285 251.97C94.7965 251.306 97.0099 248.777 99.2194 246.429C101.422 244.081 103.624 241.924 105.948 242.02C105.769 243.272 104.299 244.016 104.654 245.48C108.064 243.424 111.695 240.499 115.59 237.683C119.478 234.867 123.625 232.161 127.885 230.479C127.127 231.806 125.148 232.794 123.058 234.117C120.97 235.437 118.766 237.093 117.611 239.635C118.538 240.126 119.634 239.061 120.722 238.175C121.809 237.29 122.893 236.588 123.726 237.759C124.247 241.305 120.919 239.967 121.076 242.664C123.128 240.71 126.899 239.724 127.932 237.296C126.224 236.035 125.935 239.219 124.264 238.928C123.81 237.796 123.612 236.792 123.944 236.065C126.381 236.309 126.993 232.582 129.061 234.288C129.812 236.338 126.609 232.59 128.174 235.613C127.788 237.706 130.99 235.207 131.761 237.161C128.599 238.647 127.722 240.98 125.728 241.036C127.023 242.138 128.577 241.025 130.181 239.763C131.782 238.502 133.432 237.079 134.799 237.557C135.128 238.355 134.373 238.519 134.555 239.225C137.315 238.87 138.831 237.526 140.453 236.236C142.072 234.955 143.793 233.718 146.868 233.72C146.364 235.277 142.018 236.064 144.357 238.029C145.464 239.704 144.47 236.365 145.028 236.187C146.242 239.852 146.594 235.157 147.403 236.387C147.788 238.831 145.97 239.775 147.36 242.297C146.559 243.466 144.963 239.41 145.022 242.109C146.188 242.893 145.33 243.29 144.361 243.818C143.387 244.342 142.303 245.005 143.019 246.221C144.247 245.127 146.052 243.814 148.091 242.937C150.129 242.061 152.396 241.627 154.489 242.256C150.82 243.82 146.545 246.058 142.239 248.626C137.932 251.192 133.599 254.093 129.753 256.854C133.925 254.684 137.297 252.862 140.662 251.009C144.028 249.165 147.389 247.29 151.586 245.207C152.766 246.587 154.596 245.524 156.741 244.286C158.882 243.047 161.35 241.64 163.648 242.244C163.719 244.353 161.159 241.493 162.195 244.352C162.997 245.733 163.756 242.211 165.009 243.796C164.926 241.958 162.974 241.61 164.578 241.119C165.22 241.331 164.938 242.873 165.964 244.093C168.533 244.439 167.588 239.715 169.142 242.016C168.485 239.786 167.886 240.408 167.303 241.196C166.722 241.988 166.158 242.937 165.532 241.402C165.532 238.99 167.481 240.577 169.139 239.165C169.692 240.876 168.885 240.697 169.895 241.694C172.498 241.971 173.354 240.136 175.597 239.438C174.236 236.329 172.012 238.748 171.797 240.923C171.445 238.646 170.086 240.45 169.522 239.011C172.438 237.557 172.586 237.202 175.282 236.749L175.981 239.298C177.417 238.506 181.559 238.074 182.689 237.61C184.593 235.667 187.962 234.978 191.37 234.345C194.783 233.701 198.228 233.107 200.42 231.115C199.789 229.601 198.287 233.196 197.648 229.747C207.843 227.62 217.955 226.13 229.071 224.897L228.806 224.11C232.577 223.429 236.176 222.653 239.461 221.606C239.53 222.838 240.662 222.061 240.888 222.992C241.986 220.419 246.223 221.453 247.602 218.671C248.235 219.078 249.073 219.114 249.363 220.125C248.213 222.168 246.615 219.176 246.165 222.582C251.628 221.645 255.873 221.144 260.379 220.757C264.889 220.383 269.655 220.126 276.255 219.974C277.382 219.246 278.209 217.796 279.382 217.16C282.102 218.554 285.26 217.864 290.55 219.319C291.303 222.442 294.694 222.767 297.141 222.808C302.121 222.878 307.733 222.621 313.478 223.012C319.219 223.397 325.086 224.434 330.452 227.007C332.381 223.851 335.341 225.95 335.928 228.25C344.172 230.591 353.018 231.441 361.66 232.914C370.286 234.375 378.69 236.46 385.669 240.978C380.064 240.334 375.599 236.847 370.405 236.973C371.189 239.007 374.028 239.157 376.508 239.797C378.986 240.432 381.086 241.554 380.317 245.338C379.768 244.453 378.122 245.345 378.911 246.045C379.914 244.877 381.544 246.77 382.586 245.781C381.969 245.366 381.551 244.786 381.573 243.845C384.737 244.869 388.138 245.053 391.48 245.577C394.819 246.1 398.098 246.959 400.928 249.29C399.179 250.996 396.326 248.558 396.396 251.764C398.353 250.236 399.476 253.472 402.295 250.084C403.115 251.2 406.48 251.682 407.96 250.509C408.813 251.397 412.127 251.919 410.269 253.333C414.276 255.558 417.868 255.55 421.948 256.983C421.614 257.927 421.092 258.987 421.921 259.183C424.85 256.935 426.819 260.702 430.284 261.768C429.878 262.722 429.223 261.462 428.798 262.25C430.459 264.038 430.3 262.504 431.209 261.646C430.244 264.135 432.307 264.745 433.222 263.031C432.696 262.316 431.021 263.82 432.123 261.526C438.614 264.432 443.969 267.539 451.987 271.371C449.831 269.353 446.82 267.686 444.463 266.158C442.105 264.625 440.393 263.217 440.847 261.615C439.97 261.219 437.904 260.913 435.691 260.18C433.475 259.445 431.112 258.285 429.615 256.103C431.221 256.11 431.953 258.511 433.747 256.665C430.82 254.879 426.825 253.52 425.541 251.2C429.059 251.512 434.38 255.719 437.545 257.043C433.572 253.258 428.935 250.118 425.555 248.987C427.602 244.951 421.921 246.531 424.976 242.717C423.969 240.896 423.865 245.186 423.013 244.411C423.297 243.49 423.981 242.322 423.577 241.838L422.44 244.774C422.394 242.416 420.353 242.517 418.955 242.59C420.869 237.598 420.272 238.663 418.479 241.576C416.729 239.536 413.067 239.925 410.739 236.907C411.505 234.906 412.249 237.885 412.52 234.329C411.307 234.764 411.19 235.553 410.963 232.696C408.047 234.775 405.421 231.054 405.038 230.013C403.347 229.769 399.763 228.637 396.092 227.109C392.421 225.574 388.661 223.64 386.642 221.607C386.964 221.611 387.363 221.949 387.553 221.356C382.496 219.296 376.676 218.535 370.938 217.427C365.191 216.316 359.519 214.855 354.533 211.252C354.36 212.497 353.037 212.648 351.747 212.911C353.012 209.084 347.136 211.629 346.863 209.631C350.013 208.277 353.652 209.524 357.106 210.632C360.567 211.735 363.85 212.694 366.474 210.716C363.708 210.18 359.864 209.342 355.915 208.321C351.967 207.293 347.908 206.089 344.707 204.697C356.714 206.422 368.073 209.304 379.65 213.038C391.228 216.789 403.033 221.385 416.039 226.981C417.618 228.44 421.111 229.25 417.693 227.238C408.113 221.051 396.648 216.263 385.237 212.219C373.815 208.151 362.453 204.835 352.835 200.919C356.308 201.171 359.674 202.511 362.766 203.478C365.859 204.442 368.684 205.024 371.177 203.73C370.957 204.729 370.561 205.882 371.434 205.945C372.497 205.414 371.369 204.213 372.306 204.243C371.74 207.181 373.405 205.211 374.046 207.124C374.36 206.219 374.531 204.755 375.09 204.794C373.95 208.622 378.265 206.903 378.996 205.903C377.684 208.77 383.741 210.1 383.645 207.418C378.829 204.905 370.929 203.25 364.04 200.631C363.218 200.073 363.172 202.27 362.446 202.041C363.996 197.984 358.125 201.898 358.76 198.437C366.914 199.849 376.274 202.357 385.796 205.618C395.322 208.867 405.005 212.869 413.874 217.015C414.382 216.258 414.53 213.663 415.294 214.226C416.284 214.766 420.25 217.777 422.138 217.544C419.568 215.998 416.989 214.479 414.398 212.992C413.806 213.937 414.608 216.103 413.35 215.991C413.539 215.25 414.005 214.316 413.606 213.973C411.74 217.62 408.893 213.579 408.396 212.47C410.424 209.715 412.279 216.09 414.025 212.767C408.509 210.491 401.937 207.57 397.242 205.044C396.162 207.304 399.273 205.49 398.344 208.454C395.449 206.226 393.697 208.024 391.616 205.008C392.552 202.91 394.614 205.532 396.118 205.868C397.295 205.112 393.493 204.075 392.551 203.344C388.571 201.919 382.883 200.748 379.541 197.746C385.472 198.36 391.947 200.697 398.187 203.364C404.434 206.025 410.449 209.003 415.608 210.791C415.042 210.398 414.291 210.139 414.91 208.955C419.282 211.339 423.904 214.128 428.189 217.013C432.473 219.895 436.414 222.866 439.462 225.533C440.046 225.793 440.715 226.634 441.153 225.917C429.497 215.346 416.711 207.884 403.831 201.928C390.932 195.962 377.929 191.483 365.347 186.608C359.669 184.403 353.488 183.241 348.24 181.972C344.479 181.058 339.835 182.439 337.414 177.48C345.464 178.652 355.127 181.544 364.989 185.015C374.859 188.47 384.914 192.5 394.002 195.577C400.363 197.714 408.869 201.881 416.826 206.568C424.792 211.234 432.211 216.414 436.638 219.996C442.283 224.58 436.222 217.77 434.985 215.987C435.643 214.685 436.82 216.438 437.527 215.398C434.204 214.172 434.008 211.114 430.933 209.772C429.892 212.525 434.788 211.712 433.147 214.817C430.406 211.742 424.429 210.74 425.157 205.533C422.706 204.832 420.762 203.124 418.711 201.739C416.664 200.355 414.513 199.297 411.704 199.951C411.907 197.804 412.789 198.806 413.273 197.947C410.448 197.157 411.418 192.914 408.514 194.625C409.149 195.282 411.091 195.049 410.027 196.874C404.227 193.087 400.149 191.365 393.582 191.124C392.65 187.974 387.824 187.782 385.999 185.334C382.77 186.483 380.407 184.457 378.145 182.568C375.888 180.683 373.739 178.936 371.095 180.711C364.867 176.324 358.194 174.411 351.545 172.827C344.884 171.239 338.242 169.978 331.768 166.799C331.029 167.651 330.11 168.011 329.041 167.987C321.169 166.815 313.303 165.322 305.327 163.937C297.353 162.555 289.27 161.287 281.033 160.643C275.275 160.197 269.635 162.2 263.769 162.903C257.624 163.634 250.976 162.055 244.743 162.632C238.776 163.183 232.533 163.656 226.287 164.313C220.453 164.921 214.619 165.703 209.03 166.762L208.552 165.369C203.619 166.151 198.692 166.976 193.801 167.8C193.254 165.844 191.997 167.723 193.341 165.184H193.341Z" fill="#89B554"/>
<path d="M114.632 375.052V371.546H111.601C111.029 371.556 110.514 371.442 110.055 371.202C109.597 370.964 109.354 370.541 109.327 369.936V360.841H116.765C119.983 360.847 122.546 360.146 124.45 358.739C126.355 357.33 127.33 355.172 127.376 352.266C127.354 349.565 126.379 347.459 124.45 345.948C122.522 344.437 119.77 343.669 116.196 343.645H97.6265V347.15H100.658C101.22 347.14 101.695 347.255 102.085 347.494C102.475 347.733 102.678 348.155 102.695 348.761V369.936C102.678 370.541 102.475 370.964 102.085 371.202C101.695 371.442 101.22 371.556 100.658 371.546H97.6265V375.052H114.632ZM109.327 347.15H113.638C116.077 347.138 117.83 347.542 118.896 348.365C119.962 349.186 120.483 350.503 120.459 352.314C120.453 354.119 119.873 355.412 118.718 356.192C117.564 356.972 115.87 357.354 113.638 357.335H109.327V347.15Z" fill="#89B554"/>
<path d="M150.224 361.456L154.013 350.04H154.108L158.229 361.456L150.224 361.456V361.456ZM152.307 375.052V371.547H148.613C148.156 371.553 147.791 371.494 147.517 371.369C147.244 371.245 147.104 371.019 147.097 370.694C147.099 370.484 147.118 370.301 147.156 370.143C147.194 369.986 147.237 369.838 147.286 369.699L148.849 364.962H159.603L161.166 369.699C161.216 369.844 161.259 370.015 161.296 370.214C161.334 370.413 161.353 370.62 161.356 370.836C161.362 371.072 161.254 371.25 161.03 371.369C160.806 371.488 160.425 371.547 159.887 371.547H156.145V375.052H172.63V371.547C171.377 371.579 170.341 371.431 169.521 371.102C168.701 370.774 168.079 370.069 167.656 368.988L158.182 343.645H151.55L142.502 368.988C142.099 370.069 141.484 370.774 140.655 371.102C139.825 371.431 138.783 371.579 137.528 371.547V375.052H152.307Z" fill="#89B554"/>
<path d="M199.425 375.052V371.546H196.677C195.876 371.546 195.288 371.347 194.912 370.954C194.538 370.562 194.352 369.985 194.356 369.225V349.424C194.386 348.542 194.693 347.937 195.28 347.612C195.866 347.286 196.553 347.133 197.341 347.15H199.425V343.645H182.656V347.15H185.309C186.217 347.165 186.851 347.373 187.209 347.772C187.567 348.172 187.739 348.675 187.724 349.282V369.841C187.733 370.451 187.526 370.889 187.103 371.155C186.679 371.422 185.986 371.552 185.024 371.546H182.656V375.052H199.425Z" fill="#89B554"/>
<path d="M235.235 375.052H242.245V348.808C242.238 348.325 242.419 347.93 242.79 347.624C243.162 347.319 243.77 347.16 244.614 347.15H247.409V343.645H231.966V347.15H234.856C235.705 347.155 236.328 347.348 236.727 347.73C237.125 348.113 237.323 348.662 237.319 349.376V366.241H237.225L223.439 343.645H209.465V347.15H212.781C213.505 347.144 214.012 347.275 214.303 347.541C214.594 347.807 214.734 348.246 214.723 348.856V369.652C214.734 370.227 214.594 370.686 214.303 371.025C214.012 371.365 213.505 371.538 212.781 371.546H209.465V375.052H225.145V371.546H221.592C220.972 371.539 220.494 371.365 220.159 371.025C219.823 370.686 219.654 370.227 219.65 369.652V349.613H219.745L235.235 375.052Z" fill="#89B554"/>
<path d="M257.47 343.645V356.577H260.976V354.445C260.975 351.944 261.628 350.101 262.936 348.915C264.243 347.729 266.211 347.14 268.84 347.15V369.841C268.851 370.451 268.71 370.889 268.42 371.156C268.128 371.422 267.62 371.552 266.897 371.546H263.297V375.052H281.014V371.546H277.414C276.69 371.552 276.183 371.422 275.892 371.156C275.6 370.889 275.461 370.451 275.472 369.841V347.15C278.1 347.14 280.067 347.729 281.375 348.915C282.682 350.101 283.336 351.944 283.335 354.445V356.577H286.841L286.841 343.645H257.47Z" fill="#89B554"/>
<path d="M313.95 375.052V371.546H311.203C310.402 371.546 309.813 371.347 309.438 370.954C309.063 370.562 308.878 369.985 308.882 369.225V349.424C308.911 348.542 309.219 347.937 309.805 347.612C310.391 347.286 311.079 347.133 311.866 347.15H313.95V343.645H297.181V347.15H299.834C300.742 347.165 301.376 347.373 301.735 347.772C302.092 348.172 302.264 348.675 302.25 349.282V369.841C302.258 370.451 302.051 370.889 301.627 371.155C301.205 371.422 300.511 371.552 299.549 371.546H297.181V375.052H313.95Z" fill="#89B554"/>
<path d="M349.761 375.052H356.772V348.808C356.764 348.325 356.946 347.93 357.317 347.624C357.688 347.319 358.296 347.16 359.141 347.15H361.936V343.645H346.493V347.15H349.383C350.231 347.155 350.854 347.348 351.254 347.73C351.652 348.113 351.85 348.662 351.845 349.376V366.241H351.751L337.966 343.645H323.991V347.15H327.307C328.031 347.144 328.538 347.275 328.829 347.541C329.12 347.807 329.26 348.246 329.249 348.856V369.652C329.26 370.227 329.12 370.686 328.829 371.025C328.538 371.365 328.031 371.538 327.307 371.546H323.991V375.052H339.671V371.546H336.118C335.499 371.539 335.021 371.365 334.685 371.025C334.35 370.686 334.18 370.227 334.176 369.652V349.613H334.271L349.761 375.052Z" fill="#89B554"/>
<path d="M396.534 346.251C395.279 345.191 393.868 344.339 392.3 343.693C390.732 343.048 389.001 342.716 387.107 342.699C382.415 342.793 378.736 344.368 376.07 347.423C373.403 350.479 372.045 354.446 371.995 359.326C372.051 364.455 373.421 368.502 376.106 371.464C378.789 374.427 382.457 375.939 387.107 376C388.844 376 390.58 375.716 392.318 375.154C394.054 374.59 395.602 373.751 396.96 372.636L398.712 375.053H402.123V364.158C402.1 363.229 402.264 362.598 402.615 362.262C402.965 361.927 403.638 361.769 404.634 361.789H407.05V358.283H389.949V361.789H392.981C393.624 361.783 394.197 361.96 394.698 362.321C395.199 362.683 395.464 363.263 395.491 364.062V365.862C395.499 367.69 394.928 369.151 393.78 370.245C392.632 371.338 390.866 371.898 388.48 371.926C385.181 371.851 382.838 370.651 381.451 368.326C380.065 366.001 379.392 363 379.432 359.326C379.45 355.735 380.173 352.766 381.6 350.42C383.027 348.073 385.052 346.857 387.675 346.772C390.702 346.864 392.962 347.805 394.455 349.59C395.948 351.377 396.989 353.454 397.575 355.82H401.224V343.645H397.718L396.534 346.251Z" fill="#89B554"/>
<path d="M42.0541 328.038H58.6761V307.261H62.0004V298.368H34.4078V307.261H39.4775V310.751C38.8961 311.867 38.0026 312.815 36.7974 313.598C35.5922 314.381 33.826 314.79 31.4991 314.824C27.861 314.717 25.0597 313.228 23.0943 310.356C21.1294 307.486 20.1355 303.877 20.1129 299.531C20.1666 295.245 21.2225 291.601 23.2813 288.602C25.3402 285.604 28.0792 284.038 31.4991 283.907C34.0234 283.926 36.1844 284.844 37.9818 286.66C39.7788 288.476 40.7762 291.077 40.9736 294.461H55.8506V269.945H43.4671L41.7216 275.928C41.2177 275.055 39.8567 273.726 37.6389 271.939C35.4208 270.152 31.3796 269.155 25.5151 268.947C18.7796 269.089 12.9065 271.921 7.89568 277.445C2.88488 282.969 0.252779 290.331 0 299.531C0.17839 308.604 2.70992 315.725 7.59438 320.891C12.4787 326.058 18.6463 328.69 26.0969 328.787C29.3398 328.729 32.1415 328.116 34.5013 326.948C36.8615 325.779 38.5199 324.397 39.4775 322.802L42.0541 328.038Z" fill="white"/>
<path d="M89.3885 317.156H85.2331L85.233 308.597C85.2538 305.012 86.272 302.56 88.2876 301.24C90.3027 299.921 93.1906 299.298 96.9517 299.371V284.411C92.805 284.47 89.8578 285.204 88.111 286.613C86.3638 288.023 85.0166 289.754 84.0694 291.808L81.5764 286.489H65.9513V297.293H69.5253V317.156H65.8682V328.044H89.3885V317.156Z" fill="white"/>
<path d="M122.068 296.54C124.646 296.619 126.325 297.333 127.106 298.679C127.887 300.026 128.258 301.53 128.218 303.188H115.668C115.691 302.002 116.144 300.634 117.029 299.084C117.914 297.535 119.593 296.687 122.068 296.54ZM135.614 314.242C133.343 316.045 131.196 317.177 129.173 317.639C127.151 318.102 125.42 318.299 123.979 318.231C120.599 318.087 118.362 317.232 117.268 315.665C116.174 314.098 115.557 312.682 115.419 311.416H141.598C142.418 308.94 142.733 306.37 142.544 303.708C142.355 301.044 141.985 298.932 141.432 297.371C140.169 293.813 137.793 290.933 134.306 288.727C130.818 286.521 126.573 285.385 121.569 285.32C115.147 285.371 109.852 287.283 105.684 291.054C101.517 294.825 99.3595 300.144 99.2124 307.011C99.482 314.931 101.851 320.68 106.318 324.257C110.785 327.833 115.73 329.593 121.153 329.534C125.444 329.565 129.329 329.025 132.809 327.914C136.29 326.802 139.552 324.932 142.596 322.304L135.614 314.242Z" fill="white"/>
<path d="M165.791 318.813C164.517 318.796 163.471 318.436 162.654 317.732C161.836 317.03 161.414 316.088 161.386 314.907C161.38 313.596 161.767 312.54 162.55 311.738C163.333 310.937 164.552 310.525 166.207 310.502C167.923 310.577 169.145 310.926 169.874 311.552C170.603 312.177 171.015 312.63 171.11 312.912V316.07C170.717 316.73 170.049 317.343 169.105 317.909C168.162 318.476 167.057 318.777 165.791 318.813ZM150.831 299.615C152.423 298.692 154.268 297.837 156.368 297.049C158.469 296.261 160.751 295.842 163.215 295.791C165.507 295.752 167.384 296.059 168.846 296.716C170.307 297.373 171.062 298.616 171.11 300.446V303.354C170.892 303.016 170.082 302.468 168.679 301.713C167.277 300.958 165.345 300.535 162.882 300.446C158.053 300.496 153.998 301.871 150.717 304.57C147.436 307.269 145.729 310.992 145.596 315.738C145.784 320.534 147.526 324.053 150.821 326.293C154.116 328.534 157.832 329.641 161.968 329.618C163.552 329.661 165.412 329.304 167.547 328.547C169.682 327.79 171.562 326.374 173.188 324.299L175.183 328.038H192.968V317.4H187.982V301.193C187.888 296.77 186.681 293.308 184.359 290.808C182.037 288.308 179.161 286.552 175.731 285.538C172.3 284.525 168.877 284.036 165.458 284.073C161.566 284.194 158.007 284.928 154.779 286.275C151.552 287.622 149.072 288.855 147.341 289.973L150.831 299.615Z" fill="white"/>
<path d="M196.025 297.287H200.513V312.08C200.39 317.462 201.052 321.7 202.498 324.797C203.944 327.892 207.659 329.472 213.645 329.533C214.744 329.53 216.347 329.392 218.455 329.118C220.562 328.844 222.311 328.457 223.702 327.955V317.317C222.86 317.667 221.924 317.985 220.896 318.272C219.868 318.56 219.057 318.712 218.465 318.729C216.937 318.629 216.088 317.874 215.92 316.464C215.752 315.055 215.714 313.594 215.805 312.08V297.287H223.702V286.483H215.805V273.933L200.513 278.837V286.483H196.025V297.287Z" fill="white"/>
<path d="M274.859 280.751C277.29 280.76 279.18 281.409 280.531 282.694C281.882 283.981 282.568 285.854 282.588 288.315C282.55 290.53 281.794 292.23 280.323 293.416C278.852 294.602 276.891 295.201 274.443 295.213H270.703V280.751H274.859ZM249.011 280.835H253.665V317.071H249.011V328.041H275.773V317.071H270.703V304.189H277.019C283.129 304.189 288.258 302.818 292.406 300.075C296.552 297.333 298.71 293.219 298.877 287.733C299.127 282.847 297.714 278.699 294.639 275.287C291.564 271.876 285.33 270.096 275.939 269.948H249.011V280.835Z" fill="white"/>
<path d="M327.118 317.151H322.214V265.706H302.932V276.427H306.423V317.151H302.849V328.038H327.117L327.118 317.151Z" fill="white"/>
<path d="M350.4 318.813C349.126 318.796 348.08 318.436 347.263 317.732C346.446 317.03 346.023 316.088 345.996 314.907C345.99 313.596 346.377 312.54 347.16 311.738C347.941 310.937 349.161 310.525 350.816 310.502C352.532 310.577 353.754 310.926 354.483 311.552C355.212 312.177 355.625 312.63 355.719 312.912V316.07C355.327 316.73 354.658 317.343 353.715 317.909C352.771 318.476 351.666 318.777 350.4 318.813ZM335.441 299.615C337.032 298.692 338.878 297.837 340.978 297.049C343.078 296.261 345.36 295.842 347.824 295.791C350.117 295.752 351.993 296.059 353.455 296.716C354.916 297.373 355.671 298.616 355.719 300.446V303.354C355.501 303.016 354.691 302.468 353.289 301.713C351.886 300.958 349.954 300.535 347.492 300.446C342.663 300.496 338.608 301.871 335.327 304.57C332.045 307.269 330.338 310.992 330.205 315.738C330.394 320.534 332.136 324.053 335.431 326.293C338.725 328.534 342.441 329.641 346.578 329.618C348.162 329.661 350.022 329.304 352.157 328.547C354.291 327.79 356.172 326.374 357.798 324.299L359.792 328.038H377.577V317.4H372.592V301.193C372.498 296.77 371.29 293.308 368.969 290.808C366.646 288.308 363.77 286.552 360.34 285.538C356.91 284.525 353.486 284.036 350.068 284.073C346.176 284.194 342.616 284.928 339.388 286.275C336.161 287.622 333.682 288.855 331.951 289.973L335.441 299.615Z" fill="white"/>
<path d="M383.789 274.349C383.836 276.444 384.678 278.342 386.314 280.042C387.95 281.742 390.101 282.643 392.765 282.743C395.728 282.679 397.99 281.851 399.549 280.26C401.11 278.669 401.896 276.699 401.908 274.349C401.885 272.323 401.078 270.432 399.487 268.677C397.896 266.921 395.655 265.986 392.765 265.871C389.846 265.986 387.623 266.921 386.096 268.677C384.569 270.432 383.8 272.323 383.789 274.349ZM404.733 317.151H400.744V286.483H381.462V297.287H384.953V317.151H381.462V328.038H404.733V317.151Z" fill="white"/>
<path d="M435.086 317.152H429.102V305.35C429.054 303.465 429.398 301.73 430.13 300.146C430.862 298.562 432.265 297.72 434.337 297.622C436.677 297.767 438.065 298.702 438.503 300.426C438.941 302.151 439.104 303.792 438.992 305.35V328.04H459.936V317.152H456.03V303.273C456.207 298.693 455.311 294.555 453.338 290.859C451.367 287.162 447.249 285.206 440.986 284.989C438.377 285.021 436.095 285.642 434.14 286.848C432.186 288.055 430.506 289.651 429.102 291.638L427.19 286.485H409.488V297.289H412.978V317.152H409.488V328.04H435.086V317.152Z" fill="white"/>
<path d="M473.368 328.038L474.117 322.969C475.145 324.603 476.766 326.009 478.978 327.187C481.191 328.364 483.809 328.98 486.832 329.036C491.003 329.004 494.587 327.903 497.584 325.732C500.582 323.56 502.15 320.507 502.291 316.569C502.128 312.332 500.687 309.295 497.969 307.458C495.251 305.621 492.231 304.225 488.91 303.272C486.157 302.402 483.788 301.606 481.804 300.882C479.819 300.159 478.781 299.237 478.687 298.118C478.714 297.085 479.036 296.327 479.654 295.843C480.272 295.36 481.03 295.122 481.929 295.127C484.1 295.172 486.032 295.788 487.726 296.976C489.419 298.164 490.312 299.653 490.406 301.443H501.211V286.483H490.988L490.323 291.968C489.396 290.135 487.821 288.608 485.596 287.387C483.371 286.166 480.819 285.533 477.939 285.485C474.748 285.459 471.573 286.407 468.413 288.332C465.253 290.258 463.553 293.326 463.312 297.537C463.419 301.385 464.556 304.328 466.719 306.367C468.884 308.407 471.433 309.896 474.366 310.835C477.492 311.795 480.277 312.575 482.719 313.172C485.16 313.769 486.448 314.652 486.583 315.82C486.534 316.957 486.133 317.719 485.378 318.107C484.623 318.494 483.806 318.674 482.926 318.647C481.468 318.69 479.689 318.312 477.586 317.514C475.485 316.716 474.328 315.237 474.117 313.079H462.979V328.038H473.368Z" fill="white"/>
</svg>
